<?xml version="1.0" encoding="UTF-8" standalone="no"?>
<!-- Created with Inkscape (http://www.inkscape.org/) -->

<svg
   xmlns:dc="http://purl.org/dc/elements/1.1/"
   xmlns:cc="http://creativecommons.org/ns#"
   xmlns:rdf="http://www.w3.org/1999/02/22-rdf-syntax-ns#"
   xmlns:svg="http://www.w3.org/2000/svg"
   xmlns="http://www.w3.org/2000/svg"
   xmlns:xlink="http://www.w3.org/1999/xlink"
   xmlns:sodipodi="http://sodipodi.sourceforge.net/DTD/sodipodi-0.dtd"
   xmlns:inkscape="http://www.inkscape.org/namespaces/inkscape"
   width="242.05869"
   height="401.73788"
   id="svg2"
   version="1.1"
   inkscape:version="0.48.1 "
   sodipodi:docname="cartoon_rabbit_black_white_line_art_coloring_book_colouring.svg">
  <defs
     id="defs4">
    <inkscape:path-effect
       effect="skeletal"
       id="path-effect3235"
       is_visible="true"
       pattern="M 0,1.2662387 C -1.2904551e-5,0.56727571 3.4054224,-6.4520949e-6 7.6013938,0 11.797372,-6.0617401e-6 15.202787,0.56727526 15.20279,1.2662412 15.202793,1.9652072 11.797368,2.5324864 7.6013962,2.53248 3.4054182,2.532486 -6.197277e-6,1.9652077 0,1.2662387 z"
       copytype="single_stretched"
       prop_scale="1"
       scale_y_rel="false"
       spacing="0"
       normal_offset="0"
       tang_offset="0"
       prop_units="false"
       vertical_pattern="false"
       fuse_tolerance="0" />
    <inkscape:path-effect
       effect="skeletal"
       id="path-effect3225"
       is_visible="true"
       pattern="M 0,1.2662387 C -1.2904551e-5,0.56727571 3.4054224,-6.4520949e-6 7.6013938,0 11.797372,-6.0617401e-6 15.202787,0.56727526 15.20279,1.2662412 15.202793,1.9652072 11.797368,2.5324864 7.6013962,2.53248 3.4054182,2.532486 -6.197277e-6,1.9652077 0,1.2662387 z"
       copytype="single_stretched"
       prop_scale="1"
       scale_y_rel="false"
       spacing="0"
       normal_offset="0"
       tang_offset="0"
       prop_units="false"
       vertical_pattern="false"
       fuse_tolerance="0" />
    <inkscape:path-effect
       effect="skeletal"
       id="path-effect3208"
       is_visible="true"
       pattern="M 0,5 C 0,2.24 2.24,0 5,0 7.76,0 10,2.24 10,5 10,7.76 7.76,10 5,10 2.24,10 0,7.76 0,5 z"
       copytype="single_stretched"
       prop_scale="1"
       scale_y_rel="false"
       spacing="0"
       normal_offset="0"
       tang_offset="0"
       prop_units="false"
       vertical_pattern="false"
       fuse_tolerance="0" />
    <inkscape:path-effect
       effect="skeletal"
       id="path-effect3204"
       is_visible="true"
       pattern="M 0,5 C 0,2.24 2.24,0 5,0 7.76,0 10,2.24 10,5 10,7.76 7.76,10 5,10 2.24,10 0,7.76 0,5 z"
       copytype="single_stretched"
       prop_scale="1"
       scale_y_rel="false"
       spacing="0"
       normal_offset="0"
       tang_offset="0"
       prop_units="false"
       vertical_pattern="false"
       fuse_tolerance="0" />
    <inkscape:path-effect
       effect="skeletal"
       id="path-effect4167"
       is_visible="true"
       pattern="m 0,1.4279217 c 0,0 10.07627,0.17678 23.15775,0.17678 13.08147,0 23.33452,-0.17678 23.33452,-0.17678 0,0 -15.02602,-1.59098999 -23.33453,-1.41420999 C 14.84924,0.19049171 0,1.4279217 0,1.4279217 z"
       copytype="single_stretched"
       prop_scale="1"
       scale_y_rel="false"
       spacing="0"
       normal_offset="0"
       tang_offset="0"
       prop_units="false"
       vertical_pattern="false"
       fuse_tolerance="0" />
    <inkscape:path-effect
       effect="skeletal"
       id="path-effect4157"
       is_visible="true"
       pattern="m 0,1.4279217 c 0,0 10.07627,0.17678 23.15775,0.17678 13.08147,0 23.33452,-0.17678 23.33452,-0.17678 0,0 -15.02602,-1.59098999 -23.33453,-1.41420999 C 14.84924,0.19049171 0,1.4279217 0,1.4279217 z"
       copytype="single_stretched"
       prop_scale="1"
       scale_y_rel="false"
       spacing="0"
       normal_offset="0"
       tang_offset="0"
       prop_units="false"
       vertical_pattern="false"
       fuse_tolerance="0" />
    <inkscape:path-effect
       effect="skeletal"
       id="path-effect4147"
       is_visible="true"
       pattern="m 0,1.4279217 c 0,0 10.07627,0.17678 23.15775,0.17678 13.08147,0 23.33452,-0.17678 23.33452,-0.17678 0,0 -15.02602,-1.59098999 -23.33453,-1.41420999 C 14.84924,0.19049171 0,1.4279217 0,1.4279217 z"
       copytype="single_stretched"
       prop_scale="1"
       scale_y_rel="false"
       spacing="0"
       normal_offset="0"
       tang_offset="0"
       prop_units="false"
       vertical_pattern="false"
       fuse_tolerance="0" />
    <inkscape:path-effect
       effect="skeletal"
       id="path-effect4130"
       is_visible="true"
       pattern="m 4.065864,25.682873 c 0,-2.76 2.24,-5 5,-5 2.76,0 5,2.24 5,5 0,2.76 -2.24,5 -5,5 -2.76,0 -5,-2.24 -5,-5 z"
       copytype="single_stretched"
       prop_scale="1"
       scale_y_rel="false"
       spacing="0"
       normal_offset="0"
       tang_offset="0"
       prop_units="false"
       vertical_pattern="false"
       fuse_tolerance="0" />
    <inkscape:path-effect
       effect="spiro"
       id="path-effect4128"
       is_visible="true" />
    <inkscape:path-effect
       effect="skeletal"
       id="path-effect4124"
       is_visible="true"
       pattern="M 0,5 C 0,2.24 2.24,0 5,0 7.76,0 10,2.24 10,5 10,7.76 7.76,10 5,10 2.24,10 0,7.76 0,5 z"
       copytype="single_stretched"
       prop_scale="1"
       scale_y_rel="false"
       spacing="0"
       normal_offset="0"
       tang_offset="0"
       prop_units="false"
       vertical_pattern="false"
       fuse_tolerance="0" />
    <inkscape:path-effect
       effect="spiro"
       id="path-effect4122"
       is_visible="true" />
    <linearGradient
       id="linearGradient4057">
      <stop
         style="stop-color:#000000;stop-opacity:0;"
         offset="0"
         id="stop4059" />
      <stop
         style="stop-color:#000000;stop-opacity:1;"
         offset="1"
         id="stop4061" />
    </linearGradient>
    <inkscape:path-effect
       effect="spiro"
       id="path-effect3959"
       is_visible="true" />
    <inkscape:path-effect
       effect="spiro"
       id="path-effect3955"
       is_visible="true" />
    <inkscape:path-effect
       effect="spiro"
       id="path-effect3951"
       is_visible="true" />
    <inkscape:path-effect
       effect="spiro"
       id="path-effect3947"
       is_visible="true" />
    <inkscape:path-effect
       effect="spiro"
       id="path-effect3943"
       is_visible="true" />
    <inkscape:path-effect
       effect="spiro"
       id="path-effect3939"
       is_visible="true" />
    <linearGradient
       inkscape:collect="always"
       id="linearGradient3755">
      <stop
         style="stop-color:#ff0000;stop-opacity:1;"
         offset="0"
         id="stop3757" />
      <stop
         style="stop-color:#ffce00;stop-opacity:1"
         offset="1"
         id="stop3759" />
    </linearGradient>
    <linearGradient
       inkscape:collect="always"
       id="linearGradient3977-1">
      <stop
         style="stop-color:#000000;stop-opacity:1;"
         offset="0"
         id="stop3979-4" />
      <stop
         style="stop-color:#000000;stop-opacity:0;"
         offset="1"
         id="stop3981-7" />
    </linearGradient>
    <inkscape:path-effect
       effect="spiro"
       id="path-effect3947-8"
       is_visible="true" />
    <linearGradient
       gradientTransform="translate(-360.72801,-493.85138)"
       y2="508.06674"
       x2="448.55569"
       y1="508.06674"
       x1="360.728"
       gradientUnits="userSpaceOnUse"
       id="linearGradient4001"
       xlink:href="#linearGradient3977-1"
       inkscape:collect="always" />
    <linearGradient
       inkscape:collect="always"
       id="linearGradient3977-6">
      <stop
         style="stop-color:#000000;stop-opacity:1;"
         offset="0"
         id="stop3979-7" />
      <stop
         style="stop-color:#000000;stop-opacity:0;"
         offset="1"
         id="stop3981-0" />
    </linearGradient>
    <inkscape:path-effect
       effect="spiro"
       id="path-effect3947-6"
       is_visible="true" />
    <linearGradient
       gradientTransform="translate(-360.72801,-493.85138)"
       y2="508.06674"
       x2="448.55569"
       y1="508.06674"
       x1="360.728"
       gradientUnits="userSpaceOnUse"
       id="linearGradient4001-2"
       xlink:href="#linearGradient3977-6"
       inkscape:collect="always" />
    <linearGradient
       id="linearGradient4057-6">
      <stop
         style="stop-color:#000000;stop-opacity:0;"
         offset="0"
         id="stop4059-0" />
      <stop
         style="stop-color:#000000;stop-opacity:1;"
         offset="1"
         id="stop4061-7" />
    </linearGradient>
    <inkscape:path-effect
       effect="spiro"
       id="path-effect3959-8"
       is_visible="true" />
    <linearGradient
       gradientTransform="translate(-228.41733,-472.99173)"
       y2="491.45551"
       x2="330.1153"
       y1="491.45551"
       x1="228.41733"
       gradientUnits="userSpaceOnUse"
       id="linearGradient4081"
       xlink:href="#linearGradient4057-6"
       inkscape:collect="always" />
    <linearGradient
       inkscape:collect="always"
       xlink:href="#linearGradient3755"
       id="linearGradient4805"
       gradientUnits="userSpaceOnUse"
       x1="364.75"
       y1="323.11218"
       x2="291.5"
       y2="443.11218" />
    <linearGradient
       id="linearGradient3876-7"
       inkscape:collect="always">
      <stop
         id="stop3878-4"
         offset="0"
         style="stop-color:#00f5ff;stop-opacity:1" />
      <stop
         id="stop3880-5"
         offset="1"
         style="stop-color:#ffce00;stop-opacity:1" />
    </linearGradient>
    <linearGradient
       y2="443.11218"
       x2="291.5"
       y1="323.11218"
       x1="364.75"
       gradientUnits="userSpaceOnUse"
       id="linearGradient3975"
       xlink:href="#linearGradient3876-7"
       inkscape:collect="always" />
    <inkscape:path-effect
       effect="skeletal"
       id="path-effect3225-1"
       is_visible="true"
       pattern="m 237.69946,271.97124 c -10e-6,-0.69896 3.40543,-1.26624 7.6014,-1.26624 4.19598,0 7.60139,0.56728 7.60139,1.26624 1e-5,0.69897 -3.40542,1.26625 -7.60139,1.26624 -4.19598,10e-6 -7.6014,-0.56727 -7.6014,-1.26624 z"
       copytype="single_stretched"
       prop_scale="1"
       scale_y_rel="false"
       spacing="0"
       normal_offset="0"
       tang_offset="0"
       prop_units="false"
       vertical_pattern="false"
       fuse_tolerance="0" />
    <inkscape:path-effect
       effect="skeletal"
       id="path-effect3235-7"
       is_visible="true"
       pattern="m 239.19946,271.59624 c -10e-6,-0.69896 3.40543,-1.26624 7.6014,-1.26624 4.19598,0 7.60139,0.56728 7.60139,1.26624 1e-5,0.69897 -3.40542,1.26625 -7.60139,1.26624 -4.19598,10e-6 -7.6014,-0.56727 -7.6014,-1.26624 z"
       copytype="single_stretched"
       prop_scale="1"
       scale_y_rel="false"
       spacing="0"
       normal_offset="0"
       tang_offset="0"
       prop_units="false"
       vertical_pattern="false"
       fuse_tolerance="0" />
    <inkscape:path-effect
       effect="skeletal"
       id="path-effect3225-3"
       is_visible="true"
       pattern="m -21.920316,-291.03952 c -1.3e-5,-0.69896 3.405423,-1.26624 7.601394,-1.26624 4.195978,0 7.6013931,0.56728 7.6013961,1.26624 3e-6,0.69897 -3.4054221,1.26625 -7.6013941,1.26624 -4.195978,10e-6 -7.601402,-0.56727 -7.601396,-1.26624 z"
       copytype="single_stretched"
       prop_scale="1"
       scale_y_rel="false"
       spacing="0"
       normal_offset="0"
       tang_offset="0"
       prop_units="false"
       vertical_pattern="false"
       fuse_tolerance="0" />
    <inkscape:path-effect
       effect="skeletal"
       id="path-effect3235-3"
       is_visible="true"
       pattern="m -21.920316,-291.03952 c -1.3e-5,-0.69896 3.405423,-1.26624 7.601394,-1.26624 4.195978,0 7.6013931,0.56728 7.6013961,1.26624 3e-6,0.69897 -3.4054221,1.26625 -7.6013941,1.26624 -4.195978,10e-6 -7.601402,-0.56727 -7.601396,-1.26624 z"
       copytype="single_stretched"
       prop_scale="1"
       scale_y_rel="false"
       spacing="0"
       normal_offset="0"
       tang_offset="0"
       prop_units="false"
       vertical_pattern="false"
       fuse_tolerance="0" />
    <inkscape:path-effect
       effect="skeletal"
       id="path-effect3225-7"
       is_visible="true"
       pattern="m -21.920316,-291.03952 c -1.3e-5,-0.69896 3.405423,-1.26624 7.601394,-1.26624 4.195978,0 7.6013931,0.56728 7.6013961,1.26624 3e-6,0.69897 -3.4054221,1.26625 -7.6013941,1.26624 -4.195978,10e-6 -7.601402,-0.56727 -7.601396,-1.26624 z"
       copytype="single_stretched"
       prop_scale="1"
       scale_y_rel="false"
       spacing="0"
       normal_offset="0"
       tang_offset="0"
       prop_units="false"
       vertical_pattern="false"
       fuse_tolerance="0" />
    <inkscape:path-effect
       effect="skeletal"
       id="path-effect3235-75"
       is_visible="true"
       pattern="m -21.920316,-291.03952 c -1.3e-5,-0.69896 3.405423,-1.26624 7.601394,-1.26624 4.195978,0 7.6013931,0.56728 7.6013961,1.26624 3e-6,0.69897 -3.4054221,1.26625 -7.6013941,1.26624 -4.195978,10e-6 -7.601402,-0.56727 -7.601396,-1.26624 z"
       copytype="single_stretched"
       prop_scale="1"
       scale_y_rel="false"
       spacing="0"
       normal_offset="0"
       tang_offset="0"
       prop_units="false"
       vertical_pattern="false"
       fuse_tolerance="0" />
  </defs>
  <sodipodi:namedview
     id="base"
     pagecolor="#ffffff"
     bordercolor="#666666"
     borderopacity="1.0"
     inkscape:pageopacity="0.0"
     inkscape:pageshadow="2"
     inkscape:zoom="2.8284271"
     inkscape:cx="38.627237"
     inkscape:cy="209.34003"
     inkscape:document-units="px"
     inkscape:current-layer="layer1"
     showgrid="false"
     inkscape:window-width="1920"
     inkscape:window-height="1018"
     inkscape:window-x="-8"
     inkscape:window-y="-8"
     inkscape:window-maximized="1"
     fit-margin-top="0"
     fit-margin-left="0"
     fit-margin-right="0"
     fit-margin-bottom="0"
     showborder="false" />
  <metadata
     id="metadata7">
    <rdf:RDF>
      <cc:Work
         rdf:about="">
        <dc:format>image/svg+xml</dc:format>
        <dc:type
           rdf:resource="http://purl.org/dc/dcmitype/StillImage" />
        <dc:title />
      </cc:Work>
    </rdf:RDF>
  </metadata>
  <g
     inkscape:label="Layer 1"
     inkscape:groupmode="layer"
     id="layer1"
     transform="translate(-231.46758,-271.49378)">
    <g
       id="g3132"
       style="stroke:#000000;fill:#ffffff">
      <path
         sodipodi:type="arc"
         style="color:#000000;fill:#ffffff;fill-opacity:1;fill-rule:nonzero;stroke:#000000;stroke-width:1;marker:none;visibility:visible;display:inline;overflow:visible;enable-background:accumulate"
         id="path4470"
         sodipodi:cx="572.40295"
         sodipodi:cy="478.54504"
         sodipodi:rx="76.721085"
         sodipodi:ry="64.700272"
         d="m 649.12404,478.54504 c 0,35.73298 -34.3492,64.70028 -76.72109,64.70028 -42.37188,0 -76.72108,-28.9673 -76.72108,-64.70028 0,-35.73297 34.3492,-64.70027 76.72108,-64.70027 42.37189,0 76.72109,28.9673 76.72109,64.70027 z"
         transform="matrix(0.22446352,0,0,0.22446352,194.22363,479.76644)" />
      <g
         id="g3123"
         style="stroke:#000000;fill:#ffffff">
        <rect
           ry="16.970562"
           rx="16.970562"
           y="563.39355"
           x="312.5412"
           height="109.8381"
           width="33.941124"
           id="rect4237"
           style="color:#000000;fill:#ffffff;fill-opacity:1;fill-rule:nonzero;stroke:#000000;stroke-width:0.50000000000000000;marker:none;visibility:visible;display:inline;overflow:visible;enable-background:accumulate" />
        <path
           style="color:#000000;fill:#ffffff;fill-opacity:0.35784314000000000;fill-rule:nonzero;stroke:#000000;stroke-width:1;marker:none;visibility:visible;display:inline;overflow:visible;enable-background:accumulate"
           d="m 318.81116,567.28125 c -3.78292,3.1075 -6.21875,7.79383 -6.21875,13.09375 l 0,75.875 c 0,9.40169 7.56706,16.96875 16.96875,16.96875 5.99161,0 11.20056,-3.08663 14.21875,-7.75 -0.39776,0.32452 -0.76072,0.6809 -1.1875,0.96875 -0.90256,0.60875 -1.85915,1.13426 -2.875,1.5625 -1.01585,0.42824 -2.08077,0.77468 -3.1875,1 -1.10673,0.22532 -2.26229,0.34375 -3.4375,0.34375 -1.17521,0 -2.33077,-0.11843 -3.4375,-0.34375 -1.10673,-0.22532 -2.17165,-0.57176 -3.1875,-1 -1.01585,-0.42824 -1.97244,-0.95375 -2.875,-1.5625 -0.90256,-0.60875 -1.73314,-1.29564 -2.5,-2.0625 -0.76686,-0.76686 -1.485,-1.59744 -2.09375,-2.5 -0.60875,-0.90256 -1.13426,-1.85915 -1.5625,-2.875 -0.42824,-1.01585 -0.74343,-2.08077 -0.96875,-3.1875 -0.22532,-1.10673 -0.34375,-2.26229 -0.34375,-3.4375 l 0,-75.90625 c 0,-1.17521 0.11843,-2.33077 0.34375,-3.4375 0.22532,-1.10673 0.54051,-2.17165 0.96875,-3.1875 0.38059,-0.90281 0.85085,-1.74819 1.375,-2.5625 z"
           id="path4372"
           inkscape:connector-curvature="0" />
        <path
           sodipodi:nodetypes="sssssszs"
           inkscape:connector-curvature="0"
           id="path4241"
           d="m 319.13057,653.44969 0,4.52089 c 0,5.74993 5.1109,10.3813 11.46966,10.3813 l 0.64185,0 c 6.35876,0 11.49757,-4.63137 11.49757,-10.3813 l 0,-4.52089 c 0,-5.74993 -1.50794,-5.46971 -11.8185,-5.46971 -10.31056,0 -11.79058,-0.28022 -11.79058,5.46971 z"
           style="color:#000000;fill:#ffffff;fill-opacity:1;fill-rule:nonzero;stroke:#000000;stroke-width:0.50000000000000000;marker:none;visibility:visible;display:inline;overflow:visible;enable-background:accumulate;stroke-linecap:butt;stroke-linejoin:miter;stroke-miterlimit:4;stroke-opacity:1;stroke-dasharray:none;stroke-dashoffset:0" />
      </g>
      <g
         id="g3118"
         style="stroke:#000000;fill:#ffffff">
        <rect
           style="color:#000000;fill:#ffffff;fill-opacity:1;fill-rule:nonzero;stroke:#000000;stroke-width:0.50000000000000000;marker:none;visibility:visible;display:inline;overflow:visible;enable-background:accumulate"
           id="rect4101"
           width="33.941124"
           height="109.8381"
           x="353.55338"
           y="559.85803"
           rx="16.970562"
           ry="16.970562" />
        <path
           inkscape:connector-curvature="0"
           id="path4374"
           d="m 359.73941,563.39216 c -3.78292,3.1075 -6.21875,7.79383 -6.21875,13.09375 l 0,75.875 c 0,9.40169 7.56706,16.96875 16.96875,16.96875 5.99161,0 11.20056,-3.08663 14.21875,-7.75 -0.39776,0.32452 -0.76072,0.6809 -1.1875,0.96875 -0.90256,0.60875 -1.85915,1.13426 -2.875,1.5625 -1.01585,0.42824 -2.08077,0.77468 -3.1875,1 -1.10673,0.22532 -2.26229,0.34375 -3.4375,0.34375 -1.17521,0 -2.33077,-0.11843 -3.4375,-0.34375 -1.10673,-0.22532 -2.17165,-0.57176 -3.1875,-1 -1.01585,-0.42824 -1.97244,-0.95375 -2.875,-1.5625 -0.90256,-0.60875 -1.73314,-1.29564 -2.5,-2.0625 -0.76686,-0.76686 -1.485,-1.59744 -2.09375,-2.5 -0.60875,-0.90256 -1.13426,-1.85915 -1.5625,-2.875 -0.42824,-1.01585 -0.74343,-2.08077 -0.96875,-3.1875 -0.22532,-1.10673 -0.34375,-2.26229 -0.34375,-3.4375 l 0,-75.90625 c 0,-1.17521 0.11843,-2.33077 0.34375,-3.4375 0.22532,-1.10673 0.54051,-2.17165 0.96875,-3.1875 0.38059,-0.90281 0.85085,-1.74819 1.375,-2.5625 z"
           style="color:#000000;fill:#ffffff;fill-opacity:0.35784314000000000;fill-rule:nonzero;stroke:#000000;stroke-width:1;marker:none;visibility:visible;display:inline;overflow:visible;enable-background:accumulate" />
        <path
           style="color:#000000;fill:#ffffff;fill-opacity:1;fill-rule:nonzero;stroke:#000000;stroke-width:0.50000000000000000;marker:none;visibility:visible;display:inline;overflow:visible;enable-background:accumulate;stroke-linecap:butt;stroke-linejoin:miter;stroke-miterlimit:4;stroke-opacity:1;stroke-dasharray:none;stroke-dashoffset:0"
           d="m 359.78921,649.5606 0,4.52089 c 0,5.74993 5.1109,10.3813 11.46966,10.3813 l 0.64185,0 c 6.35876,0 11.49757,-4.63137 11.49757,-10.3813 l 0,-4.52089 c 0,-5.74993 -1.50794,-5.46971 -11.8185,-5.46971 -10.31056,0 -11.79058,-0.28022 -11.79058,5.46971 z"
           id="rect4217"
           inkscape:connector-curvature="0"
           sodipodi:nodetypes="sssssszs" />
      </g>
      <g
         inkscape:transform-center-y="48.774077"
         inkscape:transform-center-x="-14.964938"
         transform="matrix(0.97861497,0.20570059,-0.20570059,0.97861497,107.34443,-50.99097)"
         id="g4652"
         style="stroke:#000000;fill:#ffffff">
        <path
           inkscape:transform-center-y="44.052208"
           inkscape:transform-center-x="-27.625236"
           sodipodi:nodetypes="cscsssscssc"
           inkscape:connector-curvature="0"
           id="path4638"
           d="m 381.07698,492.58672 c -2.38819,2.04411 -3.73496,5.20202 -3.3576,8.56328 0.19112,1.70233 0.79411,3.24554 1.71539,4.54952 12.0161,14.36099 29.99953,41.28817 27.76934,57.45526 -1.00348,7.27444 3.56666,12.44394 11.06324,13.59514 8.32981,1.27915 13.91546,-4.25788 15.19461,-12.58772 0.81308,-5.29483 -0.24384,-5.22431 -2.09931,-10.42337 -4.76273,-13.34523 -21.11576,-48.77275 -36.04058,-59.49468 -2.01578,-2.7189 -5.38776,-4.34275 -8.98757,-3.9386 -2.01677,0.22643 -3.91917,0.95208 -5.2575,2.28114 z"
           style="color:#000000;fill:#ffffff;fill-opacity:1;fill-rule:nonzero;stroke:#000000;stroke-width:1;marker:none;visibility:visible;display:inline;overflow:visible;enable-background:accumulate" />
        <path
           inkscape:connector-curvature="0"
           id="path5610"
           d="m 384.61216,490.7187 c -1.33557,0.37472 -2.59961,0.93056 -3.53656,1.86102 -2.38819,2.04411 -3.75028,5.20321 -3.37292,8.56446 0.19112,1.70233 0.80262,3.25133 1.7239,4.55531 12.0161,14.36099 30.01698,41.28324 27.78678,57.45032 -1.00348,7.27444 3.57057,12.45705 11.06715,13.60825 3.49178,0.5362 6.45154,-0.17249 8.86383,-1.73541 -0.18297,0.06 -0.3435,0.15608 -0.53119,0.20745 -0.85751,0.23469 -1.77091,0.36752 -2.72333,0.41277 -0.95242,0.0453 -1.96358,-0.007 -3.0048,-0.16673 -1.87415,-0.2878 -3.56208,-0.83315 -5.02905,-1.59334 -1.46698,-0.76019 -2.698,-1.72701 -3.67508,-2.8998 -0.48854,-0.5864 -0.91226,-1.22766 -1.26282,-1.906 -0.35057,-0.67833 -0.63401,-1.39252 -0.83624,-2.15532 -0.20223,-0.76281 -0.3355,-1.5713 -0.37907,-2.41109 -0.0436,-0.83979 -0.0103,-1.73338 0.11511,-2.64269 0.27877,-2.02089 0.24428,-4.19065 -0.0575,-6.50223 -0.30177,-2.31158 -0.87219,-4.74158 -1.65223,-7.25273 -0.78003,-2.51116 -1.77555,-5.09866 -2.93159,-7.71828 -1.15604,-2.61961 -2.47225,-5.29246 -3.90203,-7.92942 -1.42978,-2.63695 -2.94944,-5.26184 -4.55068,-7.82501 -1.60124,-2.56317 -3.28112,-5.05507 -4.95155,-7.45335 -3.34086,-4.79655 -6.70661,-9.18548 -9.71063,-12.77573 -0.46064,-0.65199 -0.85869,-1.36003 -1.14848,-2.12163 -0.2898,-0.76159 -0.47343,-1.55193 -0.56899,-2.4031 -0.0943,-0.84031 -0.0856,-1.66339 0.0249,-2.46407 0.11051,-0.80067 0.33279,-1.60254 0.62682,-2.33512 0.29403,-0.73258 0.64531,-1.41569 1.10152,-2.05171 0.4562,-0.63602 1.02261,-1.20253 1.61965,-1.71356 0.25609,-0.2543 0.60081,-0.39241 0.89505,-0.60326 z"
           style="color:#000000;fill:#ffffff;fill-opacity:0.35784314000000000;fill-rule:nonzero;stroke:#000000;stroke-width:1;marker:none;visibility:visible;display:inline;overflow:visible;enable-background:accumulate" />
        <g
           transform="matrix(1.0425989,0.29921051,-0.29921051,1.0425989,169.80102,-165.5722)"
           id="g4640"
           style="stroke:#000000;fill:#ffffff">
          <g
             id="g4661"
             style="stroke:#000000;fill:#ffffff">
            <path
               transform="matrix(0.51428571,0,0,-0.6551724,181.3013,970.2834)"
               d="m 473.76155,597.33899 c 0,5.6626 -5.5402,10.25305 -12.37437,10.25305 -6.83418,0 -12.37437,-4.59045 -12.37437,-10.25305 0,-5.6626 5.54019,-10.25305 12.37437,-10.25305 6.83417,0 12.37437,4.59045 12.37437,10.25305 z"
               sodipodi:ry="10.253048"
               sodipodi:rx="12.374369"
               sodipodi:cy="597.33899"
               sodipodi:cx="461.38718"
               id="path4642"
               style="color:#000000;fill:#ffffff;fill-opacity:1;fill-rule:nonzero;stroke:#000000;stroke-width:1;marker:none;visibility:visible;display:inline;overflow:visible;enable-background:accumulate"
               sodipodi:type="arc" />
            <path
               transform="matrix(0.51428571,0,0,-0.6551724,179.51896,977.43232)"
               d="m 473.76155,597.33899 c 0,5.6626 -5.5402,10.25305 -12.37437,10.25305 -6.83418,0 -12.37437,-4.59045 -12.37437,-10.25305 0,-5.6626 5.54019,-10.25305 12.37437,-10.25305 6.83417,0 12.37437,4.59045 12.37437,10.25305 z"
               sodipodi:ry="10.253048"
               sodipodi:rx="12.374369"
               sodipodi:cy="597.33899"
               sodipodi:cx="461.38718"
               id="path4644"
               style="color:#000000;fill:#ffffff;fill-opacity:1;fill-rule:nonzero;stroke:#000000;stroke-width:1;marker:none;visibility:visible;display:inline;overflow:visible;enable-background:accumulate"
               sodipodi:type="arc" />
            <path
               transform="matrix(0.51428571,0,0,-0.6551724,162.51168,980.19775)"
               d="m 473.76155,597.33899 c 0,5.6626 -5.5402,10.25305 -12.37437,10.25305 -6.83418,0 -12.37437,-4.59045 -12.37437,-10.25305 0,-5.6626 5.54019,-10.25305 12.37437,-10.25305 6.83417,0 12.37437,4.59045 12.37437,10.25305 z"
               sodipodi:ry="10.253048"
               sodipodi:rx="12.374369"
               sodipodi:cy="597.33899"
               sodipodi:cx="461.38718"
               id="path4646"
               style="color:#000000;fill:#ffffff;fill-opacity:1;fill-rule:nonzero;stroke:#000000;stroke-width:1;marker:none;visibility:visible;display:inline;overflow:visible;enable-background:accumulate"
               sodipodi:type="arc" />
            <path
               sodipodi:type="arc"
               style="color:#000000;fill:#ffffff;fill-opacity:1;fill-rule:nonzero;stroke:#000000;stroke-width:1;marker:none;visibility:visible;display:inline;overflow:visible;enable-background:accumulate"
               id="path4648"
               sodipodi:cx="461.38718"
               sodipodi:cy="597.33899"
               sodipodi:rx="12.374369"
               sodipodi:ry="10.253048"
               d="m 473.76155,597.33899 c 0,5.6626 -5.5402,10.25305 -12.37437,10.25305 -6.83418,0 -12.37437,-4.59045 -12.37437,-10.25305 0,-5.6626 5.54019,-10.25305 12.37437,-10.25305 6.83417,0 12.37437,4.59045 12.37437,10.25305 z"
               transform="matrix(0.51428571,0,0,-0.6551724,172.05868,984.19687)" />
          </g>
          <path
             inkscape:connector-curvature="0"
             id="path4702"
             d="m 393.69287,590.10993 c 0.58722,3.07758 3.05812,5.4519 6.14402,5.4519 1.25484,0 2.40541,-0.3828 3.39122,-1.04462 0.70523,2.8992 3.19398,5.05201 6.16059,5.05201 3.51472,0 6.35371,-3.00897 6.35371,-6.71895 -1e-5,-0.0516 -0.0153,-0.10294 -0.0164,-0.15428 0.35815,0.0661 0.72177,0.10362 1.09784,0.10362 3.51472,0 6.37917,-3.02244 6.37917,-6.73242 0,-0.7587 -0.1393,-1.47666 -0.35894,-2.15688 1.29825,-1.22983 2.12806,-2.98584 2.12806,-4.97209 0,-2.02318 -0.88764,-3.77717 -2.22895,-5.01359 0.0793,0.42391 0.24831,0.82219 0.24832,1.27017 0,0.99312 -0.21059,1.94321 -0.58033,2.78422 -0.36973,0.84102 -0.89861,1.57295 -1.54773,2.18787 0.21963,0.68022 0.35894,1.39819 0.35893,2.15688 0,0.92749 -0.18342,1.80992 -0.50688,2.61498 -0.32346,0.80507 -0.79028,1.54828 -1.368,2.15796 -0.57772,0.60968 -1.25356,1.08406 -2.01635,1.42538 -0.7628,0.34133 -1.60925,0.5341 -2.48793,0.5341 -0.37607,0 -0.73969,-0.0376 -1.09785,-0.10362 0.001,0.0513 0.0165,0.10268 0.0164,0.15428 0,0.92749 -0.18582,1.81118 -0.50689,2.61499 -0.32107,0.8038 -0.76798,1.53648 -1.34253,2.14448 -0.57454,0.608 -1.25594,1.08532 -2.01635,1.42538 -0.76041,0.34006 -1.60925,0.53409 -2.48793,0.5341 -0.74166,0 -1.46074,-0.12933 -2.12225,-0.37647 -0.66152,-0.24713 -1.26248,-0.61655 -1.80306,-1.06685 -0.54058,-0.4503 -1.02417,-0.99494 -1.40302,-1.60446 -0.37885,-0.60952 -0.65596,-1.27943 -0.83227,-2.00423 -0.49291,0.33091 -1.01262,0.59254 -1.58034,0.77097 -0.56772,0.17843 -1.18346,0.27364 -1.81087,0.27365 -0.87868,0 -1.73562,-0.19497 -2.49965,-0.53532 -0.62549,-0.27863 -1.15777,-0.7105 -1.66374,-1.17316 z"
             style="color:#000000;fill:#ffffff;fill-opacity:1;fill-rule:nonzero;stroke:#000000;stroke-width:2.10155534999999990;marker:none;visibility:visible;display:inline;overflow:visible;enable-background:accumulate" />
          <path
             inkscape:connector-curvature="0"
             id="path4732"
             d="m 395.75657,591.37438 c -0.12685,-0.0469 -0.27901,-0.0265 -0.40138,-0.081 -0.62549,-0.27863 -1.15777,-0.71051 -1.66374,-1.17317 0.58722,3.07758 3.05812,5.4519 6.14402,5.45191 1.25484,0 2.4054,-0.38279 3.39122,-1.04462 0.70523,2.8992 3.19398,5.052 6.16059,5.052 3.51473,0 6.35371,-3.00897 6.35371,-6.71894 -1e-5,-0.0516 -0.0153,-0.10294 -0.0164,-0.15428 0.35815,0.0661 0.72177,0.10362 1.09784,0.10362 3.51472,0 6.37917,-3.02245 6.37917,-6.73242 0,-0.18968 -0.0733,-0.35459 -0.0897,-0.53922 -0.0775,0.31006 -0.0675,0.65402 -0.18446,0.94504 -0.32346,0.80507 -0.76481,1.53481 -1.34253,2.14449 -0.57773,0.60968 -1.27903,1.09753 -2.04182,1.43885 -0.7628,0.34133 -1.60925,0.5341 -2.48793,0.5341 -0.37607,0 -0.73969,-0.0375 -1.09784,-0.10362 0.001,0.0513 0.0164,0.10267 0.0164,0.15428 0,0.92749 -0.18581,1.81118 -0.50689,2.61499 -0.32107,0.8038 -0.76798,1.53648 -1.34253,2.14448 -0.57454,0.608 -1.25594,1.08532 -2.01635,1.42538 -0.76041,0.34006 -1.60925,0.53409 -2.48793,0.5341 -0.74165,0 -1.46073,-0.12933 -2.12225,-0.37647 -0.66152,-0.24713 -1.26248,-0.61655 -1.80306,-1.06685 -0.15984,-0.13315 -0.26331,-0.31899 -0.41027,-0.46741 -0.66152,-0.24713 -1.26248,-0.61656 -1.80306,-1.06685 -0.49455,-0.41196 -0.90865,-0.9313 -1.27125,-1.47862 -0.11773,0.0454 -0.21019,0.13718 -0.33105,0.17516 -0.56772,0.17843 -1.18346,0.27364 -1.81087,0.27365 -0.77148,0 -1.49989,-0.14325 -2.17467,-0.41392 -0.67477,-0.27068 -1.27957,-0.66759 -1.81801,-1.15673 -0.12875,-0.11697 -0.19936,-0.29034 -0.31892,-0.41795 z"
             style="color:#000000;fill:#ffffff;fill-opacity:0.35784314000000000;fill-rule:nonzero;stroke:#000000;stroke-width:0.92192750999999995;marker:none;visibility:visible;display:inline;overflow:visible;enable-background:accumulate" />
        </g>
      </g>
      <g
         transform="matrix(0.99339675,0,0,0.90947494,2.2762543,53.84163)"
         id="g3173"
         style="stroke:#000000;fill:#ffffff">
        <path
           style="color:#000000;fill:#ffffff;fill-opacity:1;fill-rule:nonzero;stroke:#000000;marker:none;visibility:visible;display:inline;overflow:visible;enable-background:accumulate"
           d="m 344.5,464.875 c -31.97126,0 -55.33792,53.35755 -55.78125,78.8125 0,30.92795 25.07205,56 56,56 30.92795,0 56,-25.14966 56,-56 0,-29.62409 -24.24749,-78.8125 -56.21875,-78.8125 z"
           id="path3932"
           inkscape:connector-curvature="0"
           sodipodi:nodetypes="zcssz" />
        <path
           style="color:#000000;fill:#ffffff;fill-opacity:0.35784314000000000;fill-rule:nonzero;stroke:#000000;marker:none;visibility:visible;display:inline;overflow:visible;enable-background:accumulate"
           d="m 318.21848,477.6875 c -17.53091,17.40567 -28.84932,48.37656 -29.15625,66 0,30.92795 25.07205,56 56,56 18.13561,0 34.20337,-8.68875 44.4375,-22.0625 -1.02948,0.99146 -2.05354,1.9638 -3.15625,2.875 -1.38287,1.14271 -2.82289,2.24205 -4.3125,3.25 -1.48961,1.00795 -3.00679,1.9488 -4.59375,2.8125 -1.58696,0.8637 -3.23131,1.6338 -4.90625,2.34375 -1.67494,0.70995 -3.40272,1.35954 -5.15625,1.90625 -1.75353,0.54671 -3.55227,1.00103 -5.375,1.375 -1.82273,0.37397 -3.64869,0.65202 -5.53125,0.84375 -1.88256,0.19173 -3.817,0.28125 -5.75,0.28125 -1.933,0 -3.83619,-0.0901 -5.71875,-0.28125 -1.88256,-0.19118 -3.73977,-0.47076 -5.5625,-0.84375 -1.82273,-0.37299 -3.62147,-0.8296 -5.375,-1.375 -1.75353,-0.5454 -3.45006,-1.16656 -5.125,-1.875 -1.67494,-0.70844 -3.31929,-1.51291 -4.90625,-2.375 -1.58696,-0.86209 -3.13539,-1.80614 -4.625,-2.8125 -1.48961,-1.00636 -2.92963,-2.0775 -4.3125,-3.21875 -1.38287,-1.14125 -2.702,-2.35825 -3.96875,-3.625 -1.26675,-1.26675 -2.4525,-2.58588 -3.59375,-3.96875 -1.14125,-1.38287 -2.24364,-2.82289 -3.25,-4.3125 -1.00636,-1.48961 -1.91916,-3.00679 -2.78125,-4.59375 -0.86209,-1.58696 -1.66656,-3.23131 -2.375,-4.90625 -0.70844,-1.67494 -1.3296,-3.40272 -1.875,-5.15625 -0.5454,-1.75353 -1.00201,-3.52102 -1.375,-5.34375 -0.37299,-1.82273 -0.65257,-3.67994 -0.84375,-5.5625 -0.19118,-1.88256 -0.3125,-3.817 -0.3125,-5.75 0.0554,-3.18187 0.47495,-6.79239 1.21875,-10.6875 0.7438,-3.89511 1.81124,-8.05281 3.1875,-12.34375 1.37626,-4.29094 3.07847,-8.72441 5.03125,-13.09375 1.95278,-4.36934 4.18288,-8.68219 6.65625,-12.8125 1.23669,-2.06516 2.51865,-4.08537 3.875,-6.03125 1.12827,-1.61868 2.32461,-3.14525 3.53125,-4.65625 z"
           id="path4248"
           inkscape:connector-curvature="0" />
        <path
           sodipodi:nodetypes="zcssz"
           inkscape:connector-curvature="0"
           id="path3935"
           d="m 350.56641,476.83761 c -22.2657,0 -38.53891,40.12815 -38.84766,59.27184 0,23.25972 17.46089,42.11544 39,42.11544 21.53911,0 39,-18.91409 39,-42.11544 0,-22.27913 -16.88664,-59.27184 -39.15234,-59.27184 z"
           style="color:#000000;fill:#ffffff;fill-opacity:1;fill-rule:nonzero;stroke:#000000;marker:none;visibility:visible;display:inline;overflow:visible;enable-background:accumulate;stroke-opacity:1;stroke-width:0.52603334000000002;stroke-miterlimit:4;stroke-dasharray:none" />
      </g>
      <g
         id="g4809"
         transform="matrix(-0.95509509,0.29629939,0.29629939,0.95509509,527.05054,-75.06612)"
         inkscape:transform-center-x="10.630726"
         inkscape:transform-center-y="49.315441"
         style="stroke:#000000;fill:#ffffff">
        <path
           style="color:#000000;fill:#ffffff;fill-opacity:1;fill-rule:nonzero;stroke:#000000;stroke-width:1;marker:none;visibility:visible;display:inline;overflow:visible;enable-background:accumulate"
           d="m 381.07698,492.58672 c -2.38819,2.04411 -3.73496,5.20202 -3.3576,8.56328 0.19112,1.70233 0.79411,3.24554 1.71539,4.54952 12.0161,14.36099 29.99953,41.28817 27.76934,57.45526 -1.00348,7.27444 3.56666,12.44394 11.06324,13.59514 8.32981,1.27915 13.91546,-4.25788 15.19461,-12.58772 0.81308,-5.29483 -0.24384,-5.22431 -2.09931,-10.42337 -4.76273,-13.34523 -21.11576,-48.77275 -36.04058,-59.49468 -2.01578,-2.7189 -5.38776,-4.34275 -8.98757,-3.9386 -2.01677,0.22643 -3.91917,0.95208 -5.2575,2.28114 z"
           id="path4811"
           inkscape:connector-curvature="0"
           sodipodi:nodetypes="cscsssscssc"
           inkscape:transform-center-x="-27.625236"
           inkscape:transform-center-y="44.052208" />
        <path
           inkscape:connector-curvature="0"
           id="path3178"
           d="m 383.44836,491.02508 c 0.89498,-0.37586 1.87335,-0.61719 2.88173,-0.73041 3.59981,-0.40415 6.96532,1.23506 8.9811,3.95396 14.92482,10.72193 31.29502,46.14215 36.05775,59.48739 1.85547,5.19905 2.90737,5.14728 2.09429,10.44211 -0.97585,6.3547 -4.48245,11.04064 -9.77732,12.35821 0.3867,-0.2631 0.79939,-0.5069 1.15377,-0.81601 0.64939,-0.56639 1.22391,-1.21155 1.76007,-1.92023 0.53617,-0.70868 1.02526,-1.47714 1.44211,-2.31238 0.83368,-1.6705 1.42935,-3.56439 1.74913,-5.64684 0.20327,-1.32371 0.27754,-2.33824 0.2638,-3.15745 -0.0137,-0.81921 -0.12464,-1.44527 -0.32191,-2.09232 -0.39453,-1.29411 -1.10844,-2.59281 -2.03617,-5.19235 -1.19068,-3.33631 -3.10459,-8.0646 -5.54065,-13.43014 -2.43605,-5.36554 -5.39738,-11.36851 -8.67198,-17.30115 -1.6373,-2.96632 -3.36396,-5.91243 -5.13462,-8.74637 -1.77065,-2.83395 -3.59233,-5.54218 -5.44549,-8.06098 -1.85316,-2.51881 -3.744,-4.83803 -5.62881,-6.85894 -1.88481,-2.02091 -3.7706,-3.74957 -5.6362,-5.08981 -0.50394,-0.67972 -1.08531,-1.28736 -1.74115,-1.81562 -0.65584,-0.52827 -1.37423,-0.98226 -2.1467,-1.32991 -0.77247,-0.34765 -1.60166,-0.60542 -2.45551,-0.74331 -0.85384,-0.13789 -1.73779,-0.16616 -2.63774,-0.0651 -0.36101,0.0405 -0.6822,0.182 -1.03331,0.25512 0.56257,-0.45824 1.13525,-0.89831 1.82381,-1.18746 z"
           style="color:#000000;fill:#ffffff;fill-opacity:0.35784314000000000;fill-rule:nonzero;stroke:#000000;stroke-width:1;marker:none;visibility:visible;display:inline;overflow:visible;enable-background:accumulate" />
        <path
           inkscape:connector-curvature="0"
           id="path5623"
           d="m 433.97824,561.2415 c 0.0716,0.92141 0.0347,1.97615 -0.21466,3.60024 -1.27916,8.32984 -6.85289,13.85933 -15.1827,12.58018 -7.49658,-1.1512 -12.06178,-6.3007 -11.0583,-13.57513 2.23018,-16.1671 -15.76812,-43.10404 -27.78422,-57.46504 -0.92127,-1.30398 -1.50357,-2.84828 -1.69469,-4.55061 -0.13623,-1.21347 0.0138,-2.38181 0.29491,-3.49944 0.10272,0.78052 0.23826,1.53848 0.50593,2.24194 0.2898,0.76159 0.67885,1.4731 1.13949,2.12509 3.00403,3.59024 6.3901,7.97521 9.73096,12.77176 1.67044,2.39828 3.34391,4.90242 4.94514,7.46559 1.60124,2.56318 3.12509,5.17807 4.55487,7.81502 1.42977,2.63695 2.75232,5.2838 3.90836,7.90341 1.15604,2.61962 2.15576,5.21709 2.9358,7.72825 0.78004,2.51116 1.35089,4.93654 1.65266,7.24813 0.30177,2.31158 0.33519,4.51198 0.0564,6.53287 -0.12543,0.9093 -0.16585,1.75692 -0.12227,2.5967 0.0436,0.83979 0.14347,1.65512 0.34571,2.41792 0.20224,0.7628 0.50707,1.50645 0.85762,2.18478 0.35056,0.67833 0.78527,1.30584 1.27381,1.89223 0.97708,1.17279 2.18951,2.14156 3.65648,2.90175 1.46698,0.7602 3.17281,1.29396 5.04695,1.58176 1.04123,0.15989 2.04779,0.22414 3.0002,0.17888 0.95242,-0.0453 1.84227,-0.17071 2.69978,-0.4054 0.8575,-0.23468 1.67128,-0.59422 2.42778,-1.00263 0.7565,-0.4084 1.47291,-0.88085 2.12229,-1.44725 0.64938,-0.5664 1.23923,-1.19868 1.77539,-1.90735 0.53616,-0.70868 0.99618,-1.49083 1.41302,-2.32608 0.82129,-1.64564 1.39036,-3.54121 1.71327,-5.58757 z"
           style="color:#000000;fill:#ffffff;fill-opacity:0.35784314000000000;fill-rule:nonzero;stroke:#000000;stroke-width:1;marker:none;visibility:visible;display:inline;overflow:visible;enable-background:accumulate" />
        <g
           id="g4813"
           transform="matrix(1.0425989,0.29921051,-0.29921051,1.0425989,169.80102,-165.5722)"
           style="stroke:#000000;fill:#ffffff">
          <g
             id="g4815"
             style="stroke:#000000;fill:#ffffff">
            <path
               sodipodi:type="arc"
               style="color:#000000;fill:#ffffff;fill-opacity:1;fill-rule:nonzero;stroke:#000000;stroke-width:1;marker:none;visibility:visible;display:inline;overflow:visible;enable-background:accumulate"
               id="path4817"
               sodipodi:cx="461.38718"
               sodipodi:cy="597.33899"
               sodipodi:rx="12.374369"
               sodipodi:ry="10.253048"
               d="m 473.76155,597.33899 c 0,5.6626 -5.5402,10.25305 -12.37437,10.25305 -6.83418,0 -12.37437,-4.59045 -12.37437,-10.25305 0,-5.6626 5.54019,-10.25305 12.37437,-10.25305 6.83417,0 12.37437,4.59045 12.37437,10.25305 z"
               transform="matrix(0.51428571,0,0,-0.6551724,181.3013,970.2834)" />
            <path
               sodipodi:type="arc"
               style="color:#000000;fill:#ffffff;fill-opacity:1;fill-rule:nonzero;stroke:#000000;stroke-width:1;marker:none;visibility:visible;display:inline;overflow:visible;enable-background:accumulate"
               id="path4819"
               sodipodi:cx="461.38718"
               sodipodi:cy="597.33899"
               sodipodi:rx="12.374369"
               sodipodi:ry="10.253048"
               d="m 473.76155,597.33899 c 0,5.6626 -5.5402,10.25305 -12.37437,10.25305 -6.83418,0 -12.37437,-4.59045 -12.37437,-10.25305 0,-5.6626 5.54019,-10.25305 12.37437,-10.25305 6.83417,0 12.37437,4.59045 12.37437,10.25305 z"
               transform="matrix(0.51428571,0,0,-0.6551724,179.51896,977.43232)" />
            <path
               sodipodi:type="arc"
               style="color:#000000;fill:#ffffff;fill-opacity:1;fill-rule:nonzero;stroke:#000000;stroke-width:1;marker:none;visibility:visible;display:inline;overflow:visible;enable-background:accumulate"
               id="path4821"
               sodipodi:cx="461.38718"
               sodipodi:cy="597.33899"
               sodipodi:rx="12.374369"
               sodipodi:ry="10.253048"
               d="m 473.76155,597.33899 c 0,5.6626 -5.5402,10.25305 -12.37437,10.25305 -6.83418,0 -12.37437,-4.59045 -12.37437,-10.25305 0,-5.6626 5.54019,-10.25305 12.37437,-10.25305 6.83417,0 12.37437,4.59045 12.37437,10.25305 z"
               transform="matrix(0.51428571,0,0,-0.6551724,162.51168,980.19775)" />
            <path
               transform="matrix(0.51428571,0,0,-0.6551724,172.05868,984.19687)"
               d="m 473.76155,597.33899 c 0,5.6626 -5.5402,10.25305 -12.37437,10.25305 -6.83418,0 -12.37437,-4.59045 -12.37437,-10.25305 0,-5.6626 5.54019,-10.25305 12.37437,-10.25305 6.83417,0 12.37437,4.59045 12.37437,10.25305 z"
               sodipodi:ry="10.253048"
               sodipodi:rx="12.374369"
               sodipodi:cy="597.33899"
               sodipodi:cx="461.38718"
               id="path4823"
               style="color:#000000;fill:#ffffff;fill-opacity:1;fill-rule:nonzero;stroke:#000000;stroke-width:1;marker:none;visibility:visible;display:inline;overflow:visible;enable-background:accumulate"
               sodipodi:type="arc" />
          </g>
          <path
             style="color:#000000;fill:#ffffff;fill-opacity:1;fill-rule:nonzero;stroke:#000000;stroke-width:2.10155534999999990;marker:none;visibility:visible;display:inline;overflow:visible;enable-background:accumulate"
             d="m 393.69287,590.10993 c 0.58722,3.07758 3.05812,5.4519 6.14402,5.4519 1.25484,0 2.40541,-0.3828 3.39122,-1.04462 0.70523,2.8992 3.19398,5.05201 6.16059,5.05201 3.51472,0 6.35371,-3.00897 6.35371,-6.71895 -1e-5,-0.0516 -0.0153,-0.10294 -0.0164,-0.15428 0.35815,0.0661 0.72177,0.10362 1.09784,0.10362 3.51472,0 6.37917,-3.02244 6.37917,-6.73242 0,-0.7587 -0.1393,-1.47666 -0.35894,-2.15688 1.29825,-1.22983 2.12806,-2.98584 2.12806,-4.97209 0,-2.02318 -0.88764,-3.77717 -2.22895,-5.01359 0.0793,0.42391 0.24831,0.82219 0.24832,1.27017 0,0.99312 -0.21059,1.94321 -0.58033,2.78422 -0.36973,0.84102 -0.89861,1.57295 -1.54773,2.18787 0.21963,0.68022 0.35894,1.39819 0.35893,2.15688 0,0.92749 -0.18342,1.80992 -0.50688,2.61498 -0.32346,0.80507 -0.79028,1.54828 -1.368,2.15796 -0.57772,0.60968 -1.25356,1.08406 -2.01635,1.42538 -0.7628,0.34133 -1.60925,0.5341 -2.48793,0.5341 -0.37607,0 -0.73969,-0.0376 -1.09785,-0.10362 0.001,0.0513 0.0165,0.10268 0.0164,0.15428 0,0.92749 -0.18582,1.81118 -0.50689,2.61499 -0.32107,0.8038 -0.76798,1.53648 -1.34253,2.14448 -0.57454,0.608 -1.25594,1.08532 -2.01635,1.42538 -0.76041,0.34006 -1.60925,0.53409 -2.48793,0.5341 -0.74166,0 -1.46074,-0.12933 -2.12225,-0.37647 -0.66152,-0.24713 -1.26248,-0.61655 -1.80306,-1.06685 -0.54058,-0.4503 -1.02417,-0.99494 -1.40302,-1.60446 -0.37885,-0.60952 -0.65596,-1.27943 -0.83227,-2.00423 -0.49291,0.33091 -1.01262,0.59254 -1.58034,0.77097 -0.56772,0.17843 -1.18346,0.27364 -1.81087,0.27365 -0.87868,0 -1.73562,-0.19497 -2.49965,-0.53532 -0.62549,-0.27863 -1.15777,-0.7105 -1.66374,-1.17316 z"
             id="path4825"
             inkscape:connector-curvature="0" />
          <path
             style="color:#000000;fill:#ffffff;fill-opacity:0.35784314000000000;fill-rule:nonzero;stroke:#000000;stroke-width:0.92192750999999995;marker:none;visibility:visible;display:inline;overflow:visible;enable-background:accumulate"
             d="m 395.75657,591.37438 c -0.12685,-0.0469 -0.27901,-0.0265 -0.40138,-0.081 -0.62549,-0.27863 -1.15777,-0.71051 -1.66374,-1.17317 0.58722,3.07758 3.05812,5.4519 6.14402,5.45191 1.25484,0 2.4054,-0.38279 3.39122,-1.04462 0.70523,2.8992 3.19398,5.052 6.16059,5.052 3.51473,0 6.35371,-3.00897 6.35371,-6.71894 -1e-5,-0.0516 -0.0153,-0.10294 -0.0164,-0.15428 0.35815,0.0661 0.72177,0.10362 1.09784,0.10362 3.51472,0 6.37917,-3.02245 6.37917,-6.73242 0,-0.18968 -0.0733,-0.35459 -0.0897,-0.53922 -0.0775,0.31006 -0.0675,0.65402 -0.18446,0.94504 -0.32346,0.80507 -0.76481,1.53481 -1.34253,2.14449 -0.57773,0.60968 -1.27903,1.09753 -2.04182,1.43885 -0.7628,0.34133 -1.60925,0.5341 -2.48793,0.5341 -0.37607,0 -0.73969,-0.0375 -1.09784,-0.10362 0.001,0.0513 0.0164,0.10267 0.0164,0.15428 0,0.92749 -0.18581,1.81118 -0.50689,2.61499 -0.32107,0.8038 -0.76798,1.53648 -1.34253,2.14448 -0.57454,0.608 -1.25594,1.08532 -2.01635,1.42538 -0.76041,0.34006 -1.60925,0.53409 -2.48793,0.5341 -0.74165,0 -1.46073,-0.12933 -2.12225,-0.37647 -0.66152,-0.24713 -1.26248,-0.61655 -1.80306,-1.06685 -0.15984,-0.13315 -0.26331,-0.31899 -0.41027,-0.46741 -0.66152,-0.24713 -1.26248,-0.61656 -1.80306,-1.06685 -0.49455,-0.41196 -0.90865,-0.9313 -1.27125,-1.47862 -0.11773,0.0454 -0.21019,0.13718 -0.33105,0.17516 -0.56772,0.17843 -1.18346,0.27364 -1.81087,0.27365 -0.77148,0 -1.49989,-0.14325 -2.17467,-0.41392 -0.67477,-0.27068 -1.27957,-0.66759 -1.81801,-1.15673 -0.12875,-0.11697 -0.19936,-0.29034 -0.31892,-0.41795 z"
             id="path4827"
             inkscape:connector-curvature="0" />
        </g>
      </g>
      <path
         inkscape:connector-curvature="0"
         inkscape:original-d="m 350.68073,567.42138 c 0,0 6.57065,4.01734 7.54409,6.95246"
         inkscape:path-effect="#path-effect3225-1"
         id="path3223"
         d="m 350.68082,567.42144 c 0.35066,-0.50273 2.12161,0.10898 4.15445,1.38561 0,0 0,0 0,0 0.27655,0.17945 0.56624,0.37971 0.86036,0.60457 0.59951,0.45833 1.15691,0.97952 1.60248,1.52113 0.44557,0.5416 0.77797,1.10105 0.97965,1.60392 0.20168,0.50287 0.27422,0.94619 0.25101,1.26645 -0.0232,0.32026 -0.13809,0.51571 -0.30395,0.57072 -0.16586,0.055 -0.36431,-0.0303 -0.591,-0.18872 -0.22669,-0.15842 -0.48541,-0.38772 -0.80446,-0.65077 -0.31905,-0.26306 -0.7015,-0.56038 -1.15458,-0.8973 -0.45309,-0.33693 -0.9777,-0.71594 -1.52939,-1.16104 -0.27066,-0.21836 -0.53413,-0.44267 -0.78224,-0.67133 0,0 0,0 0,0 -1.86506,-1.44226 -3.033,-2.88051 -2.68233,-3.38324 z"
         style="color:#000000;fill:#ffffff;fill-opacity:1;fill-rule:nonzero;stroke:#000000;stroke-width:1;marker:none;visibility:visible;display:inline;overflow:visible;enable-background:accumulate" />
      <path
         inkscape:connector-curvature="0"
         inkscape:original-d="m 351.23008,574.38864 c 0,0 6.85355,-5.53095 7.73794,-7.10189"
         inkscape:path-effect="#path-effect3235-7"
         id="path3233"
         d="m 351.23015,574.38858 c -0.4155,-0.49618 0.78836,-2.20114 2.73265,-3.92777 0,0 0,0 0,0 0.15177,-0.13951 0.30765,-0.27919 0.46703,-0.41865 0.79031,-0.69154 1.55455,-1.28385 2.22549,-1.74912 0.61026,-0.45504 1.10304,-0.68429 1.47268,-0.85227 0.36965,-0.16797 0.64724,-0.26255 0.84002,-0.15402 0.19279,0.10853 0.2567,0.43873 0.10842,0.91568 -0.14827,0.47695 -0.53205,1.07647 -0.95131,1.61445 -0.52269,0.68603 -1.22628,1.43015 -2.04087,2.14259 -0.16427,0.14368 -0.3284,0.28218 -0.4915,0.41536 0,0 0,0 -10e-6,0 -2.05119,1.61918 -3.94709,2.50994 -4.3626,2.01375 z"
         style="fill:#ffffff;fill-rule:nonzero;stroke:#000000;color:#000000;fill-opacity:1;marker:none;visibility:visible;display:inline;overflow:visible;enable-background:accumulate;stroke-width:1" />
    </g>
    <g
       id="g3128"
       transform="translate(-12.727918,118.08683)"
       style="stroke:#000000;fill:#ffffff;stroke-width:1.2;stroke-miterlimit:4;stroke-dasharray:none">
      <g
         transform="matrix(0.99195207,0.12661391,-0.12661391,0.99195207,48.703798,-150.65328)"
         id="g3114"
         style="stroke:#000000;fill:#ffffff;stroke-width:1.20000001;stroke-miterlimit:4;stroke-dasharray:none">
        <rect
           transform="matrix(0.99587262,0.09076194,-0.09076194,0.99587262,0,0)"
           ry="4.5809469"
           rx="4.5809469"
           y="221.84261"
           x="400.60873"
           height="153.61435"
           width="46.174667"
           id="rect3862"
           style="fill:#ffffff;fill-opacity:1;stroke:#000000;stroke-width:1.2;stroke-miterlimit:4;stroke-dasharray:none" />
        <rect
           style="color:#000000;fill:#ffffff;fill-opacity:1;fill-rule:nonzero;stroke:#000000;marker:none;visibility:visible;display:inline;overflow:visible;enable-background:accumulate;stroke-width:1.2;stroke-miterlimit:4;stroke-dasharray:none"
           id="rect3868"
           width="33.160152"
           height="114.58741"
           x="407.116"
           y="242.89592"
           rx="3.2897885"
           ry="3.2897885"
           transform="matrix(0.99587262,0.09076194,-0.09076194,0.99587262,0,0)" />
      </g>
      <g
         transform="translate(18,-105.41421)"
         id="g5553"
         style="stroke:#000000;fill:#ffffff;stroke-width:1.2;stroke-miterlimit:4;stroke-dasharray:none">
        <rect
           style="fill:#ffffff;fill-opacity:1;stroke:#000000;stroke-width:1.20000001;stroke-miterlimit:4;stroke-dasharray:none"
           id="rect3858"
           width="46.174667"
           height="99.925484"
           x="174.05956"
           y="373.5267"
           rx="4.5809469"
           ry="4.5809469"
           transform="matrix(0.97153523,-0.2368951,0.2368951,0.97153523,0,0)" />
        <path
           style="color:#000000;fill:#ffffff;fill-opacity:0.35784314000000000;fill-rule:nonzero;stroke:#000000;stroke-width:1.2;marker:none;visibility:visible;display:inline;overflow:visible;enable-background:accumulate;stroke-miterlimit:4;stroke-dasharray:none"
           d="m 261.67011,320.75 c -2.21305,0.76481 -3.53501,3.05271 -2.96875,5.375 l 21.5,88.15625 c 0.6012,2.46561 3.06564,3.9762 5.53125,3.375 l 35.96875,-8.78125 c 2.18372,-0.53247 3.49493,-2.52476 3.375,-4.6875 -0.13749,0.0476 -0.23067,0.15231 -0.375,0.1875 l -35.96875,8.78125 c -0.6164,0.1503 -1.22492,0.15719 -1.8125,0.0625 -0.58758,-0.0947 -1.15596,-0.28961 -1.65625,-0.59375 -0.50029,-0.30414 -0.95797,-0.70945 -1.3125,-1.1875 -0.35453,-0.47805 -0.5997,-1.03985 -0.75,-1.65625 l -21.5,-88.15625 c -0.0713,-0.2923 -0.0172,-0.58572 -0.0312,-0.875 z"
           id="path4446"
           inkscape:connector-curvature="0" />
        <path
           style="color:#000000;fill:#ffffff;fill-opacity:0.35784314000000000;fill-rule:nonzero;stroke:#000000;stroke-width:1.2;marker:none;visibility:visible;display:inline;overflow:visible;enable-background:accumulate;stroke-miterlimit:4;stroke-dasharray:none"
           d="m 275.4365,394.80609 11.47362,1.79306 8.83338,-2.18336 c 0,0 0.23399,-0.68173 0.29129,-1.04999 l 10.34356,-66.55978 -2.73279,-11.19259 c 0,0 -0.083,-0.051 -0.14202,-0.0602 l -0.125,-0.0312 -11.25,72.1875 c -0.0975,0.62692 -0.31224,1.21239 -0.625,1.71875 -0.31276,0.50636 -0.71477,0.93582 -1.1875,1.28125 -0.47273,0.34543 -1.0163,0.60587 -1.59375,0.75 -0.57745,0.14413 -1.18558,0.16004 -1.8125,0.0625 l -12.7515,-1.97944 z"
           id="path4398"
           inkscape:connector-curvature="0"
           sodipodi:nodetypes="cccccccccsssccc" />
        <rect
           transform="matrix(0.97153523,-0.2368951,0.2368951,0.97153523,0,0)"
           ry="3.377255"
           rx="3.377255"
           y="385.58511"
           x="180.12599"
           height="67.665627"
           width="34.041786"
           id="rect3866"
           style="fill:#ffffff;fill-opacity:1;stroke:#000000;stroke-width:1.20000001;stroke-miterlimit:4;stroke-dasharray:none" />
        <path
           style="color:#000000;fill:#ffffff;fill-opacity:0.35784314000000000;fill-rule:nonzero;stroke:#000000;stroke-width:1.2;marker:none;visibility:visible;display:inline;overflow:visible;enable-background:accumulate;stroke-miterlimit:4;stroke-dasharray:none"
           d="m 303.9375,342.4375 -2.90625,-11.90625 -8.90625,57.1875 c -0.0975,0.62692 -0.31224,1.21239 -0.625,1.71875 -0.31276,0.50636 -0.71477,0.93582 -1.1875,1.28125 -0.47273,0.34543 -1.0163,0.60587 -1.59375,0.75 -0.57745,0.14413 -1.18558,0.16004 -1.8125,0.0625 l -6.28125,-1 0.9375,3.875 c 0.11081,0.45444 0.33237,0.86632 0.59375,1.21875 0.0857,0.11552 0.21372,0.17855 0.3125,0.28125 l 4.34375,0.6875 8.84375,-2.15625 c 0.14532,-0.34427 0.31491,-0.67628 0.375,-1.0625 l 7.90625,-50.9375 z"
           id="path4405"
           inkscape:connector-curvature="0" />
        <rect
           transform="matrix(0.98811078,0.15374358,-0.15374358,0.98811078,0,0)"
           ry="4.5809469"
           rx="4.5809469"
           y="260.49738"
           x="302.15884"
           height="82.623299"
           width="46.17466"
           id="rect3864"
           style="fill:#ffffff;fill-opacity:1;stroke:#000000;stroke-width:1.2;stroke-miterlimit:4;stroke-dasharray:none" />
        <path
           style="color:#000000;fill:#ffffff;fill-opacity:0.35784314000000000;fill-rule:nonzero;stroke:#000000;stroke-width:1.2;marker:none;visibility:visible;display:inline;overflow:visible;enable-background:accumulate;stroke-miterlimit:4;stroke-dasharray:none"
           d="m 262.09498,304.59375 c -2.07772,0.15402 -3.85281,1.63022 -4.1875,3.78125 l -11.3125,72.59375 c -0.39018,2.50767 1.33608,4.82857 3.84375,5.21875 l 36.5625,5.71875 c 2.50767,0.39018 4.82857,-1.33608 5.21875,-3.84375 l 0.0625,-0.46875 c -0.34469,0.0256 -0.67439,0.11802 -1.03125,0.0625 l -36.59375,-5.6875 c -0.62692,-0.0975 -1.18114,-0.31224 -1.6875,-0.625 -0.50636,-0.31276 -0.93582,-0.74602 -1.28125,-1.21875 -0.34543,-0.47273 -0.60587,-0.98505 -0.75,-1.5625 -0.14413,-0.57745 -0.19129,-1.21683 -0.0937,-1.84375 l 11.25,-72.125 z"
           id="path4433"
           inkscape:connector-curvature="0" />
      </g>
      <path
         transform="matrix(1.0912396,0,0,0.92272057,-267.37866,-102.07035)"
         d="m 649.12404,478.54504 c 0,35.73298 -34.3492,64.70028 -76.72109,64.70028 -42.37188,0 -76.72108,-28.9673 -76.72108,-64.70028 0,-35.73297 34.3492,-64.70027 76.72108,-64.70027 42.37189,0 76.72109,28.9673 76.72109,64.70027 z"
         sodipodi:ry="64.700272"
         sodipodi:rx="76.721085"
         sodipodi:cy="478.54504"
         sodipodi:cx="572.40295"
         id="path4209"
         style="color:#000000;fill:#ffffff;fill-opacity:1;fill-rule:nonzero;stroke:#000000;stroke-width:1.19587582;marker:none;visibility:visible;display:inline;overflow:visible;enable-background:accumulate;stroke-miterlimit:4;stroke-dasharray:none"
         sodipodi:type="arc" />
      <path
         inkscape:connector-curvature="0"
         id="path4272"
         d="m 297.31272,298.29252 c -14.36116,10.71771 -23.22294,25.21111 -23.22294,41.20524 0,32.97155 37.48066,59.68849 83.71853,59.68849 27.34347,0 51.52539,-9.38846 66.80433,-23.84656 -0.36548,0.27058 -0.68463,0.57058 -1.05714,0.83622 -1.89382,1.35045 -3.9003,2.6184 -5.96772,3.83505 -2.06742,1.21665 -4.21814,2.38734 -6.44513,3.4602 -2.22699,1.07286 -4.51591,2.05095 -6.88845,2.97001 -2.37254,0.91906 -4.8277,1.78224 -7.33177,2.53749 -2.50407,0.75524 -5.05123,1.40816 -7.67278,1.98961 -2.62155,0.58144 -5.32287,1.07296 -8.04789,1.47059 -2.72502,0.39763 -5.47214,0.71889 -8.2866,0.92272 -2.81446,0.20382 -5.66955,0.28835 -8.55941,0.28835 -2.88986,0 -5.74495,-0.0845 -8.55941,-0.28835 -2.81446,-0.20383 -5.59568,-0.52509 -8.3207,-0.92272 -2.72502,-0.39763 -5.39224,-0.88915 -8.01379,-1.47059 -2.62155,-0.58145 -5.20282,-1.23437 -7.70688,-1.98961 -2.50407,-0.75525 -4.95923,-1.61843 -7.33177,-2.53749 -2.37254,-0.91906 -4.66146,-1.89715 -6.88845,-2.97001 -2.22699,-1.07286 -4.37771,-2.24355 -6.44513,-3.4602 -2.06742,-1.21665 -4.0398,-2.4846 -5.93362,-3.83505 -1.89381,-1.35046 -3.71591,-2.7645 -5.42209,-4.23875 -1.70619,-1.47425 -3.30375,-3.02556 -4.80828,-4.6136 -1.50452,-1.58804 -2.90561,-3.21013 -4.19445,-4.90196 -1.28884,-1.69183 -2.48739,-3.43353 -3.54653,-5.21914 -1.05912,-1.78561 -1.98092,-3.60926 -2.7963,-5.47865 -0.81539,-1.86939 -1.52255,-3.795 -2.08018,-5.73817 -0.55762,-1.94317 -0.97591,-3.90423 -1.26174,-5.91118 -0.28583,-2.00695 -0.40922,-4.0523 -0.40922,-6.11302 0,-2.06072 0.12339,-4.10608 0.40922,-6.11303 0.28583,-2.00694 0.70412,-3.968 1.26174,-5.91117 0.55763,-1.94318 1.26479,-3.86877 2.08018,-5.73818 0.81538,-1.86939 1.73718,-3.69304 2.7963,-5.47865 1.05914,-1.78561 2.25769,-3.52731 3.54653,-5.21913 1.28884,-1.69183 2.68993,-3.34275 4.19445,-4.93079 0.74727,-0.78875 1.58921,-1.51668 2.38709,-2.27797 z"
         style="color:#000000;fill:#ffffff;fill-opacity:0.35784314000000000;fill-rule:nonzero;stroke:#000000;stroke-width:1.2;marker:none;visibility:visible;display:inline;overflow:visible;enable-background:accumulate;stroke-miterlimit:4;stroke-dasharray:none" />
      <path
         transform="matrix(0.81844556,0,0,0.81844556,71.075197,-14.883391)"
         d="m 346,411.36218 c 0,20.43454 -16.56546,37 -37,37 -20.43454,0 -37,-16.56546 -37,-37 0,-20.43453 16.56546,-37 37,-37 20.43454,0 37,16.56547 37,37 z"
         sodipodi:ry="37"
         sodipodi:rx="37"
         sodipodi:cy="411.36218"
         sodipodi:cx="309"
         id="path2985"
         style="color:#000000;fill:#ffffff;fill-opacity:1;fill-rule:evenodd;stroke:#000000;marker:none;visibility:visible;display:inline;overflow:visible;enable-background:accumulate;stroke-width:1.46619404;stroke-miterlimit:4;stroke-dasharray:none"
         sodipodi:type="arc" />
      <path
         d="m 346,411.36218 c 0,20.43454 -16.56546,37 -37,37 -20.43454,0 -37,-16.56546 -37,-37 0,-20.43453 16.56546,-37 37,-37 20.43454,0 37,16.56547 37,37 z"
         sodipodi:ry="37"
         sodipodi:rx="37"
         sodipodi:cy="411.36218"
         sodipodi:cx="309"
         id="path3777"
         style="fill:#ffffff;fill-opacity:1;fill-rule:evenodd;stroke:#000000;stroke-width:3.35094338;stroke-miterlimit:4;stroke-dasharray:none"
         sodipodi:type="arc"
         transform="matrix(0.35810811,0,0,0.35810811,205.56946,189.98203)" />
      <path
         transform="matrix(0.71890488,0,0,0.71890488,101.83327,26.06388)"
         sodipodi:type="arc"
         style="fill:#ffffff;fill-opacity:1;fill-rule:evenodd;stroke:#000000;stroke-width:1.66920553;stroke-miterlimit:4;stroke-dasharray:none"
         id="path3765"
         sodipodi:cx="309"
         sodipodi:cy="411.36218"
         sodipodi:rx="37"
         sodipodi:ry="37"
         d="m 346,411.36218 c 0,20.43454 -16.56546,37 -37,37 -20.43454,0 -37,-16.56546 -37,-37 0,-20.43453 16.56546,-37 37,-37 20.43454,0 37,16.56547 37,37 z" />
      <path
         style="color:#000000;fill:#ffffff;fill-opacity:1;fill-rule:nonzero;stroke:#000000;stroke-width:1.2;marker:none;visibility:visible;display:inline;overflow:visible;enable-background:accumulate;stroke-miterlimit:4;stroke-dasharray:none"
         d="m 298.88046,305.59519 c -4.16068,5.22006 -6.76053,11.74559 -6.76053,18.93984 0,16.87309 13.67834,30.55144 30.55144,30.55144 11.8078,0 21.93042,-6.78736 27.01635,-16.5917 -0.71699,0.89905 -1.38113,1.84558 -2.1933,2.65776 -1.38218,1.38218 -2.89029,2.64346 -4.51563,3.74153 -1.62534,1.09805 -3.35895,2.03959 -5.18652,2.81258 -1.82755,0.77299 -3.76537,1.37348 -5.7542,1.78045 -1.98882,0.40696 -4.03211,0.61928 -6.14126,0.61928 -2.10913,0 -4.17823,-0.21232 -6.16705,-0.61928 -1.98882,-0.40697 -3.90083,-1.00746 -5.7284,-1.78045 -1.82756,-0.77299 -3.56117,-1.71453 -5.18651,-2.81258 -1.62535,-1.09807 -3.13345,-2.35935 -4.51564,-3.74153 -1.38217,-1.38218 -2.64345,-2.89029 -3.74151,-4.51562 -1.09806,-1.62535 -2.0396,-3.35896 -2.81259,-5.18652 -0.77299,-1.82758 -1.37348,-3.73957 -1.78046,-5.7284 -0.40696,-1.98882 -0.61927,-4.05792 -0.61927,-6.16706 0,-2.10914 0.21231,-4.15242 0.61927,-6.14125 0.40698,-1.98882 1.00747,-3.92664 1.78046,-5.7542 0.30865,-0.72974 0.77292,-1.36482 1.13535,-2.06429 z"
         id="path4788"
         inkscape:connector-curvature="0" />
      <path
         transform="translate(86.542154,-94.613961)"
         sodipodi:type="arc"
         style="fill:#ffffff;fill-opacity:1;fill-rule:evenodd;stroke:#000000;stroke-width:1.2;stroke-miterlimit:4;stroke-dasharray:none"
         id="path3790"
         sodipodi:cx="309"
         sodipodi:cy="411.36218"
         sodipodi:rx="37"
         sodipodi:ry="37"
         d="m 346,411.36218 c 0,20.43454 -16.56546,37 -37,37 -20.43454,0 -37,-16.56546 -37,-37 0,-20.43453 16.56546,-37 37,-37 20.43454,0 37,16.56547 37,37 z" />
      <path
         transform="matrix(0.54921805,0,0,0.54921805,216.83377,100.82069)"
         sodipodi:type="arc"
         style="fill:#ffffff;fill-opacity:1;fill-rule:evenodd;stroke:#000000;stroke-width:2.18492455;stroke-miterlimit:4;stroke-dasharray:none"
         id="path3792"
         sodipodi:cx="309"
         sodipodi:cy="411.36218"
         sodipodi:rx="37"
         sodipodi:ry="37"
         d="m 346,411.36218 c 0,20.43454 -16.56546,37 -37,37 -20.43454,0 -37,-16.56546 -37,-37 0,-20.43453 16.56546,-37 37,-37 20.43454,0 37,16.56547 37,37 z" />
      <path
         d="m 346,411.36218 c 0,20.43454 -16.56546,37 -37,37 -20.43454,0 -37,-16.56546 -37,-37 0,-20.43453 16.56546,-37 37,-37 20.43454,0 37,16.56547 37,37 z"
         sodipodi:ry="37"
         sodipodi:rx="37"
         sodipodi:cy="411.36218"
         sodipodi:cx="309"
         id="path3794"
         style="fill:#ffffff;fill-opacity:1;fill-rule:evenodd;stroke:#000000;stroke-width:1.36615384;stroke-miterlimit:4;stroke-dasharray:none"
         sodipodi:type="arc"
         transform="matrix(0.87837838,0,0,0.87837838,124.12323,-44.583425)" />
      <g
         transform="translate(8,-120.36396)"
         id="g4472"
         style="stroke:#000000;fill:#ffffff;stroke-width:1.2;stroke-miterlimit:4;stroke-dasharray:none">
        <rect
           style="fill:#ffffff;fill-opacity:1;stroke:#000000;stroke-width:1.2;stroke-miterlimit:4;stroke-dasharray:none"
           id="rect3809"
           width="19.674667"
           height="32.538872"
           x="389.92474"
           y="446.51819"
           rx="4.5809469"
           ry="4.5809469"
           transform="matrix(0.993176,0.11662521,-0.11662521,0.993176,0,0)" />
        <rect
           ry="4.5809469"
           rx="4.5809469"
           y="490.63733"
           x="354.34875"
           height="32.538872"
           width="19.674667"
           id="rect3811"
           style="fill:#ffffff;fill-opacity:1;stroke:#000000;stroke-width:1.2;stroke-miterlimit:4;stroke-dasharray:none" />
        <path
           inkscape:connector-curvature="0"
           id="path5584"
           d="m 336.5767,490.21875 c -1.1175,0.71325 -1.92638,1.85591 -2.09375,3.28125 l -2.71875,23.21875 c -0.29598,2.52053 1.47947,4.79777 4,5.09375 l 10.4375,1.21875 c 1.98182,0.23272 3.7914,-0.84341 4.625,-2.53125 -0.37966,0.25018 -0.77515,0.4652 -1.21875,0.59375 -0.57165,0.16566 -1.18237,0.23024 -1.8125,0.15625 l -10.4375,-1.21875 c -0.63013,-0.074 -1.20103,-0.26892 -1.71875,-0.5625 -0.51772,-0.29358 -0.98086,-0.69679 -1.34375,-1.15625 -0.36289,-0.45946 -0.64684,-0.99085 -0.8125,-1.5625 -0.16566,-0.57165 -0.23024,-1.18237 -0.15625,-1.8125 l 2.75,-23.21875 c 0.0647,-0.55092 0.26488,-1.03297 0.5,-1.5 z"
           style="color:#000000;fill:#ffffff;fill-opacity:0.35784314000000000;fill-rule:nonzero;stroke:#000000;stroke-width:1.2;marker:none;visibility:visible;display:inline;overflow:visible;enable-background:accumulate;stroke-miterlimit:4;stroke-dasharray:none" />
        <path
           inkscape:connector-curvature="0"
           id="path5597"
           d="m 356.25,491.59375 c -1.12851,0.83283 -1.90625,2.10864 -1.90625,3.625 l 0,23.375 c 0,2.53784 2.02466,4.59375 4.5625,4.59375 l 10.53125,0 c 1.84714,0 3.39904,-1.11984 4.125,-2.6875 -0.27483,0.19737 -0.52767,0.42925 -0.84375,0.5625 -0.54843,0.23119 -1.14679,0.375 -1.78125,0.375 l -10.53125,0 c -0.63446,0 -1.23282,-0.14381 -1.78125,-0.375 -0.54843,-0.23119 -1.0235,-0.55475 -1.4375,-0.96875 -0.414,-0.414 -0.76881,-0.92032 -1,-1.46875 -0.23119,-0.54843 -0.34375,-1.14679 -0.34375,-1.78125 l 0,-23.375 c 0,-0.63446 0.11256,-1.23282 0.34375,-1.78125 0.0147,-0.0348 0.047,-0.0594 0.0625,-0.0937 z"
           style="color:#000000;fill:#ffffff;fill-opacity:0.35784314000000000;fill-rule:nonzero;stroke:#000000;stroke-width:1.2;marker:none;visibility:visible;display:inline;overflow:visible;enable-background:accumulate;stroke-miterlimit:4;stroke-dasharray:none" />
        <path
           sodipodi:type="arc"
           style="fill:#ffffff;fill-opacity:1;stroke:#000000;stroke-width:1.07499997;stroke-miterlimit:4;stroke-dasharray:none"
           id="path3813"
           sodipodi:cx="315.01608"
           sodipodi:cy="467.23132"
           sodipodi:rx="15.202796"
           sodipodi:ry="15.202796"
           d="m 330.21888,467.23132 c 0,8.39628 -6.80652,15.2028 -15.2028,15.2028 -8.39627,0 -15.20279,-6.80652 -15.20279,-15.2028 0,-8.39627 6.80652,-15.20279 15.20279,-15.20279 8.39628,0 15.2028,6.80652 15.2028,15.20279 z"
           transform="matrix(1.1162791,0,0,1.1162791,-13.295253,-32.404602)" />
        <path
           style="color:#000000;fill:#ffffff;fill-opacity:0.35784314000000000;fill-rule:nonzero;stroke:#000000;stroke-width:1.2;marker:none;visibility:visible;display:inline;overflow:visible;enable-background:accumulate;stroke-miterlimit:4;stroke-dasharray:none"
           d="m 326.10152,477.0625 c -3.13602,3.07933 -5.09375,7.35144 -5.09375,12.09375 0,9.37258 7.59617,16.96875 16.96875,16.96875 6.13591,0 11.48792,-3.27738 14.46875,-8.15625 -0.75935,0.75545 -1.5781,1.46079 -2.46875,2.0625 -0.90284,0.60995 -1.85983,1.13312 -2.875,1.5625 -1.01517,0.42938 -2.08276,0.74269 -3.1875,0.96875 -1.10474,0.22606 -2.26593,0.34375 -3.4375,0.34375 -1.17157,0 -2.30151,-0.11769 -3.40625,-0.34375 -1.10474,-0.22606 -2.17233,-0.53937 -3.1875,-0.96875 -1.01517,-0.42938 -1.97216,-0.95255 -2.875,-1.5625 -0.90284,-0.60995 -1.76348,-1.32598 -2.53125,-2.09375 -0.76777,-0.76777 -1.45255,-1.59716 -2.0625,-2.5 -0.60995,-0.90284 -1.13312,-1.85983 -1.5625,-2.875 -0.42938,-1.01517 -0.77394,-2.08276 -1,-3.1875 -0.22606,-1.10474 -0.34375,-2.26593 -0.34375,-3.4375 0,-1.17157 0.11769,-2.30151 0.34375,-3.40625 0.22606,-1.10474 0.57062,-2.17233 1,-3.1875 0.34134,-0.80702 0.79307,-1.54374 1.25,-2.28125 z"
           id="path4318"
           inkscape:connector-curvature="0" />
        <path
           transform="matrix(1.0232558,0,0,1.0232558,47.47482,11.058776)"
           d="m 330.21888,467.23132 c 0,8.39628 -6.80652,15.2028 -15.2028,15.2028 -8.39627,0 -15.20279,-6.80652 -15.20279,-15.2028 0,-8.39627 6.80652,-15.20279 15.20279,-15.20279 8.39628,0 15.2028,6.80652 15.2028,15.20279 z"
           sodipodi:ry="15.202796"
           sodipodi:rx="15.202796"
           sodipodi:cy="467.23132"
           sodipodi:cx="315.01608"
           id="path3815"
           style="fill:#ffffff;fill-opacity:1;stroke:#000000;stroke-width:1.17272729;stroke-miterlimit:4;stroke-dasharray:none"
           sodipodi:type="arc" />
        <path
           style="color:#000000;fill:#ffffff;fill-opacity:0.35784314000000000;fill-rule:nonzero;stroke:#000000;stroke-width:1.2;marker:none;visibility:visible;display:inline;overflow:visible;enable-background:accumulate;stroke-miterlimit:4;stroke-dasharray:none"
           d="m 359.99407,477.03125 c -3.58102,2.85003 -5.9375,7.1926 -5.9375,12.125 0,8.59153 6.97097,15.5625 15.5625,15.5625 4.9324,0 9.27497,-2.35648 12.125,-5.9375 -0.31749,0.25268 -0.6005,0.55358 -0.9375,0.78125 -0.8276,0.55912 -1.69443,1.0439 -2.625,1.4375 -0.93057,0.3936 -1.92482,0.69903 -2.9375,0.90625 -1.01268,0.20722 -2.05106,0.3125 -3.125,0.3125 -1.07394,0 -2.11232,-0.10528 -3.125,-0.3125 -1.01268,-0.20722 -2.00693,-0.51265 -2.9375,-0.90625 -0.93057,-0.3936 -1.7974,-0.87838 -2.625,-1.4375 -0.8276,-0.55912 -1.60871,-1.20246 -2.3125,-1.90625 -0.70379,-0.70379 -1.34713,-1.4849 -1.90625,-2.3125 -0.55912,-0.8276 -1.0439,-1.69443 -1.4375,-2.625 -0.3936,-0.93057 -0.69903,-1.92482 -0.90625,-2.9375 -0.20722,-1.01268 -0.3125,-2.05106 -0.3125,-3.125 0,-1.07394 0.10528,-2.11232 0.3125,-3.125 0.20722,-1.01268 0.51265,-2.00693 0.90625,-2.9375 0.3936,-0.93057 0.87838,-1.7974 1.4375,-2.625 0.22767,-0.337 0.52857,-0.62001 0.78125,-0.9375 z"
           id="path4331"
           inkscape:connector-curvature="0" />
        <path
           style="color:#000000;fill:#ffffff;fill-opacity:1;fill-rule:nonzero;stroke:#000000;marker:none;visibility:visible;display:inline;overflow:visible;enable-background:accumulate;stroke-width:1.2;stroke-miterlimit:4;stroke-dasharray:none"
           d="m 348.12324,469.61123 c -2.8663,0 -6.80582,2.81219 -5.15625,5.15625 l 6.01041,8.54086 c 2.14175,3.78594 7.86067,3.41115 10.19793,0 l 6.01041,-8.54086 c 1.64957,-2.34406 -2.3212,-5.15625 -5.1875,-5.15625 z"
           id="rect3817"
           inkscape:connector-curvature="0"
           sodipodi:nodetypes="ssccsss" />
        <path
           sodipodi:type="arc"
           style="color:#000000;fill:#ffffff;fill-opacity:1;fill-rule:nonzero;stroke:#000000;marker:none;visibility:visible;display:inline;overflow:visible;enable-background:accumulate;stroke-width:1.2;stroke-miterlimit:4;stroke-dasharray:none"
           id="path3837"
           sodipodi:cx="362.75"
           sodipodi:cy="477.86218"
           sodipodi:rx="2.25"
           sodipodi:ry="2.25"
           d="m 365,477.86218 c 0,1.24264 -1.00736,2.25 -2.25,2.25 -1.24264,0 -2.25,-1.00736 -2.25,-2.25 0,-1.24264 1.00736,-2.25 2.25,-2.25 1.24264,0 2.25,1.00736 2.25,2.25 z"
           transform="translate(6.1531746,16.25)" />
        <path
           transform="matrix(0.66666667,0,0,0.66666667,133.31984,170.28739)"
           d="m 365,477.86218 c 0,1.24264 -1.00736,2.25 -2.25,2.25 -1.24264,0 -2.25,-1.00736 -2.25,-2.25 0,-1.24264 1.00736,-2.25 2.25,-2.25 1.24264,0 2.25,1.00736 2.25,2.25 z"
           sodipodi:ry="2.25"
           sodipodi:rx="2.25"
           sodipodi:cy="477.86218"
           sodipodi:cx="362.75"
           id="path3839"
           style="color:#000000;fill:#ffffff;fill-opacity:1;fill-rule:nonzero;stroke:#000000;marker:none;visibility:visible;display:inline;overflow:visible;enable-background:accumulate;stroke-width:1.79999999;stroke-miterlimit:4;stroke-dasharray:none"
           sodipodi:type="arc" />
        <path
           sodipodi:type="arc"
           style="color:#000000;fill:#ffffff;fill-opacity:1;fill-rule:nonzero;stroke:#000000;marker:none;visibility:visible;display:inline;overflow:visible;enable-background:accumulate;stroke-width:1.79999999;stroke-miterlimit:4;stroke-dasharray:none"
           id="path3841"
           sodipodi:cx="362.75"
           sodipodi:cy="477.86218"
           sodipodi:rx="2.25"
           sodipodi:ry="2.25"
           d="m 365,477.86218 c 0,1.24264 -1.00736,2.25 -2.25,2.25 -1.24264,0 -2.25,-1.00736 -2.25,-2.25 0,-1.24264 1.00736,-2.25 2.25,-2.25 1.24264,0 2.25,1.00736 2.25,2.25 z"
           transform="matrix(0.66666667,0,0,0.66666667,126.06984,166.66239)" />
        <path
           transform="matrix(0.94444445,0,0,0.94444445,-5.0690444,44.797895)"
           d="m 365,477.86218 c 0,1.24264 -1.00736,2.25 -2.25,2.25 -1.24264,0 -2.25,-1.00736 -2.25,-2.25 0,-1.24264 1.00736,-2.25 2.25,-2.25 1.24264,0 2.25,1.00736 2.25,2.25 z"
           sodipodi:ry="2.25"
           sodipodi:rx="2.25"
           sodipodi:cy="477.86218"
           sodipodi:cx="362.75"
           id="path3843"
           style="color:#000000;fill:#ffffff;fill-opacity:1;fill-rule:nonzero;stroke:#000000;marker:none;visibility:visible;display:inline;overflow:visible;enable-background:accumulate;stroke-width:1.27058823;stroke-miterlimit:4;stroke-dasharray:none"
           sodipodi:type="arc" />
        <path
           sodipodi:type="arc"
           style="color:#000000;fill:#ffffff;fill-opacity:1;fill-rule:nonzero;stroke:#000000;marker:none;visibility:visible;display:inline;overflow:visible;enable-background:accumulate;stroke-width:2.15999998;stroke-miterlimit:4;stroke-dasharray:none"
           id="path3845"
           sodipodi:cx="362.75"
           sodipodi:cy="477.86218"
           sodipodi:rx="2.25"
           sodipodi:ry="2.25"
           d="m 365,477.86218 c 0,1.24264 -1.00736,2.25 -2.25,2.25 -1.24264,0 -2.25,-1.00736 -2.25,-2.25 0,-1.24264 1.00736,-2.25 2.25,-2.25 1.24264,0 2.25,1.00736 2.25,2.25 z"
           transform="matrix(0.55555556,0,0,0.55555556,131.2504,226.13319)" />
        <path
           transform="matrix(0.72222223,0,0,0.72222223,75.417072,142.61449)"
           d="m 365,477.86218 c 0,1.24264 -1.00736,2.25 -2.25,2.25 -1.24264,0 -2.25,-1.00736 -2.25,-2.25 0,-1.24264 1.00736,-2.25 2.25,-2.25 1.24264,0 2.25,1.00736 2.25,2.25 z"
           sodipodi:ry="2.25"
           sodipodi:rx="2.25"
           sodipodi:cy="477.86218"
           sodipodi:cx="362.75"
           id="path3847"
           style="color:#000000;fill:#ffffff;fill-opacity:1;fill-rule:nonzero;stroke:#000000;marker:none;visibility:visible;display:inline;overflow:visible;enable-background:accumulate;stroke-width:1.66153844;stroke-miterlimit:4;stroke-dasharray:none"
           sodipodi:type="arc" />
        <path
           style="color:#000000;fill:#ffffff;stroke:#000000;stroke-width:1.2;stroke-linecap:butt;stroke-linejoin:miter;stroke-miterlimit:4;stroke-opacity:1;stroke-dasharray:none;stroke-dashoffset:0;marker:none;visibility:visible;display:inline;overflow:visible;enable-background:accumulate"
           d="m 368.40263,484.90899 c 9.94914,-4.36387 20.99314,-6.20454 31.8198,-5.3033 6.29392,0.52392 12.47765,1.9522 18.74733,2.71316 6.26968,0.76095 12.78192,0.82619 18.72933,-1.29895 3.13237,-1.11926 6.09103,-2.86842 8.28232,-5.37096 2.19129,-2.50255 3.56169,-5.8031 3.38495,-9.12473 -0.17432,-3.27623 -1.89715,-6.43652 -4.55586,-8.35885 -2.6587,-1.92232 -6.19927,-2.56797 -9.36562,-1.70875 -3.16635,0.85923 -5.89461,3.20569 -7.21876,6.20747 -1.32416,3.00178 -1.21781,6.59828 0.28059,9.51699 1.06356,2.07169 2.76963,3.76999 4.71415,5.05136 1.94452,1.28137 4.12579,2.16568 6.34795,2.86214 4.44433,1.39293 9.1405,2.07887 13.33308,4.10731 3.55886,1.72184 6.65261,4.39381 8.87402,7.66422 2.2214,3.27041 3.56499,7.13117 3.8539,11.07411"
           id="path3937"
           inkscape:path-effect="#path-effect3939"
           inkscape:original-d="m 368.40263,484.90899 c 0,0 25.8094,-7.42462 31.8198,-5.3033 6.01041,2.12132 34.29468,3.53553 37.47666,1.41421 3.18198,-2.12132 26.16295,-11.66726 11.66727,-14.49569 -14.49569,-2.82842 -25.1023,2.12132 -20.85965,5.65686 4.24264,3.53553 10.6066,5.3033 24.39518,12.02081 13.78858,6.71752 12.72792,15.90991 12.72792,18.73833"
           inkscape:connector-curvature="0" />
        <path
           style="color:#000000;fill:#ffffff;stroke:#000000;stroke-width:1.2;stroke-linecap:butt;stroke-linejoin:miter;stroke-miterlimit:4;stroke-opacity:1;stroke-dasharray:none;stroke-dashoffset:0;marker:none;visibility:visible;display:inline;overflow:visible;enable-background:accumulate"
           d="m 375.82725,488.09097 c 9.54553,2.72042 19.42476,4.26776 29.34493,4.59619 10.41698,0.34487 20.85087,-0.65082 31.1127,-2.47487 14.31154,-2.54389 28.33526,-6.70347 41.7193,-12.37437"
           id="path3941"
           inkscape:path-effect="#path-effect3943"
           inkscape:original-d="m 375.82725,488.09097 c 0,0 16.97056,8.83884 29.34493,4.59619 12.37437,-4.24264 24.04163,-7.42462 31.1127,-2.47487 7.07107,4.94975 34.64823,-13.43503 41.7193,-12.37437"
           inkscape:connector-curvature="0" />
        <path
           style="fill:#ffffff;stroke:#000000;stroke-width:1.2;stroke-linecap:butt;stroke-linejoin:miter;stroke-miterlimit:4;stroke-opacity:1;stroke-dasharray:none"
           d="m 368.75618,494.10138 c 11.85576,4.29336 24.23132,7.14926 36.76955,8.48528 10.84954,1.15608 22.05092,1.2308 32.17336,5.3033 7.26286,2.92202 13.69756,7.87179 18.38478,14.14214"
           id="path3945"
           inkscape:path-effect="#path-effect3947"
           inkscape:original-d="m 368.75618,494.10138 c 6.01041,0.70711 31.1127,3.18198 36.76955,8.48528 5.65686,5.3033 22.98098,9.89949 32.17336,5.3033 9.19239,-4.59619 22.27387,10.25305 18.38478,14.14214"
           inkscape:connector-curvature="0" />
        <path
           style="color:#000000;fill:#ffffff;stroke:#000000;stroke-width:1.2;stroke-linecap:butt;stroke-linejoin:miter;stroke-miterlimit:4;stroke-opacity:1;stroke-dasharray:none;stroke-dashoffset:0;marker:none;visibility:visible;display:inline;overflow:visible;enable-background:accumulate"
           d="m 336.93638,488.09097 c -2.61816,-3.64501 -6.18019,-6.60596 -10.24228,-8.51391 -4.0621,-1.90795 -8.61528,-2.7587 -13.09225,-2.44624 -4.41906,0.30841 -8.67691,1.71614 -12.88939,3.08661 -4.21248,1.37046 -8.49461,2.72594 -12.92,2.92379 -5.0002,0.22355 -9.93322,-1.03971 -14.90857,-1.58539 -2.48768,-0.27284 -5.01102,-0.36554 -7.48731,-0.004 -2.47629,0.36192 -4.91281,1.19478 -6.94906,2.64966 -3.3042,2.36083 -5.36647,6.36888 -5.36647,10.42982 0,4.06095 2.06227,8.069 5.36647,10.42983"
           id="path3949"
           inkscape:path-effect="#path-effect3951"
           inkscape:original-d="m 336.93638,488.09097 c -2.82843,-7.07107 -16.97057,-12.37437 -23.33453,-10.96015 -6.36396,1.41421 -18.38477,9.89949 -25.80939,6.0104 -7.42463,-3.88908 -26.16296,-3.18198 -29.34494,1.06066 -3.18198,4.24264 -2.82842,19.44544 0,20.85965"
           inkscape:connector-curvature="0" />
        <path
           style="color:#000000;fill:#ffffff;stroke:#000000;stroke-width:1.2;stroke-linecap:butt;stroke-linejoin:miter;stroke-miterlimit:4;stroke-opacity:1;stroke-dasharray:none;stroke-dashoffset:0;marker:none;visibility:visible;display:inline;overflow:visible;enable-background:accumulate"
           d="m 332.69374,491.98006 c -12.3217,-3.94831 -26.12794,-3.0451 -37.83022,2.47487 -5.98466,2.82297 -11.41862,6.80786 -15.9099,11.66726"
           id="path3953"
           inkscape:path-effect="#path-effect3955"
           inkscape:original-d="m 332.69374,491.98006 c -2.82843,0 -32.88047,-5.65686 -37.83022,2.47487 -4.94974,8.13173 -7.77817,15.55635 -15.9099,11.66726"
           inkscape:connector-curvature="0" />
        <path
           style="fill:#ffffff;stroke:#000000;stroke-width:1.2;stroke-linecap:butt;stroke-linejoin:miter;stroke-miterlimit:4;stroke-opacity:1;stroke-dasharray:none"
           d="m 337.64348,496.57625 c -3.91411,5.60549 -9.75697,9.83696 -16.30368,11.80733 -6.54671,1.97037 -13.7545,1.66676 -20.11232,-0.84717 -3.98666,-1.57636 -7.58914,-3.96455 -11.26174,-6.17599 -3.67259,-2.21144 -7.51726,-4.28808 -11.71923,-5.13772 -5.25168,-1.0619 -10.67022,-0.1398 -15.98998,0.49892 -5.31976,0.63872 -10.92539,0.95137 -15.82982,-1.20603 -4.04668,-1.78009 -7.32766,-5.23086 -8.90148,-9.36213 -1.57382,-4.13128 -1.42041,-8.89038 0.4162,-12.91173"
           id="path3957"
           inkscape:path-effect="#path-effect3959"
           inkscape:original-d="m 337.64348,496.57625 c 0,0 -32.17335,11.66726 -36.416,10.96016 -4.24264,-0.70711 -8.48528,-9.8995 -22.98097,-11.31371 -14.49569,-1.41421 -25.45584,6.71751 -31.8198,-0.70711 -6.36396,-7.42462 0.35355,-20.85965 -8.48528,-22.27386"
           inkscape:connector-curvature="0" />
      </g>
      <path
         inkscape:connector-curvature="0"
         id="path4794"
         d="m 366.50633,293.91192 c -5.0389,6.32187 -8.1875,14.22475 -8.1875,22.9375 0,20.43454 16.56546,37 37,37 14.3001,0 26.55932,-8.21998 32.71875,-20.09375 -0.86833,1.08883 -1.67264,2.23514 -2.65625,3.21875 -1.67392,1.67392 -3.50034,3.20142 -5.46875,4.53125 -1.96841,1.32983 -4.06794,2.4701 -6.28125,3.40625 -2.21331,0.93615 -4.56014,1.66338 -6.96875,2.15625 -2.40861,0.49287 -4.88318,0.75 -7.4375,0.75 -2.55432,0 -5.06014,-0.25713 -7.46875,-0.75 -2.40861,-0.49287 -4.72419,-1.2201 -6.9375,-2.15625 -2.21331,-0.93615 -4.31284,-2.07642 -6.28125,-3.40625 -1.96841,-1.32983 -3.79483,-2.85733 -5.46875,-4.53125 -1.67392,-1.67392 -3.20142,-3.50034 -4.53125,-5.46875 -1.32983,-1.96841 -2.4701,-4.06794 -3.40625,-6.28125 -0.93615,-2.21331 -1.66338,-4.52889 -2.15625,-6.9375 -0.49287,-2.40861 -0.75,-4.91443 -0.75,-7.46875 0,-2.55432 0.25713,-5.02889 0.75,-7.4375 0.49287,-2.40861 1.2201,-4.75544 2.15625,-6.96875 0.3738,-0.88377 0.93606,-1.6529 1.375,-2.5 z"
         style="color:#000000;fill:#ffffff;fill-opacity:1;fill-rule:nonzero;stroke:#000000;stroke-width:1.2;marker:none;visibility:visible;display:inline;overflow:visible;enable-background:accumulate;stroke-miterlimit:4;stroke-dasharray:none" />
    </g>
  </g>
</svg>
